#N canvas 0 0 450 300 10;
#X obj 116 74 routeOSC /1;
#X obj 116 97 unpack f f;
#X obj 116 51 inlet;
#X obj 128 201 outlet;
#X obj 144 126 * 2;
#X obj 144 147 - 1;
#X obj 84 201 outlet;
#X obj 173 201 outlet;
#X obj 84 181 bng 15 250 50 0 empty empty empty 17 7 0 10 -262144 -1
-1;
#X obj 173 126 * -2;
#X obj 173 147 + 1;
#X connect 0 0 1 0;
#X connect 1 0 4 0;
#X connect 1 1 9 0;
#X connect 2 0 0 0;
#X connect 4 0 5 0;
#X connect 5 0 8 0;
#X connect 5 0 3 0;
#X connect 8 0 6 0;
#X connect 9 0 10 0;
#X connect 10 0 7 0;
