#N canvas 136 198 921 430 10;
#N canvas 136 337 381 270 OSCout 0;
#X obj 131 30 inlet;
#X obj 131 55 packOSC;
#X floatatom 170 78 5 0 0 0 - - -;
#X text 204 79 bundle depth;
#X obj 48 151 bng 15 250 50 0 empty empty connect 20 7 0 8 -258113
-1 -1;
#X obj 47 120 tgl 15 0 empty empty connected 20 7 0 8 -4034 -45076
-1 1 1;
#X obj 48 169 bng 15 250 50 0 empty empty disconnect 20 7 0 8 -258113
-1 -1;
#X obj 131 220 udpsend;
#X msg 225 184 disconnect;
#X msg 225 166 connect 127.0.0.1 9964;
#X text 44 100 outL OSC;
#X connect 0 0 1 0;
#X connect 1 0 7 0;
#X connect 1 1 2 0;
#X connect 4 0 9 0;
#X connect 6 0 8 0;
#X connect 7 0 5 0;
#X connect 8 0 7 0;
#X connect 9 0 7 0;
#X coords 0 -1 1 1 125 90 2 40 100;
#X restore 20 321 pd OSCout;
#N canvas 136 337 381 270 OSCout 0;
#X obj 131 30 inlet;
#X obj 131 55 packOSC;
#X floatatom 170 78 5 0 0 0 - - -;
#X text 204 79 bundle depth;
#X obj 48 151 bng 15 250 50 0 empty empty connect 20 7 0 8 -258113
-1 -1;
#X obj 47 120 tgl 15 0 empty empty connected 20 7 0 8 -4034 -45076
-1 1 1;
#X obj 48 169 bng 15 250 50 0 empty empty disconnect 20 7 0 8 -258113
-1 -1;
#X obj 131 220 udpsend;
#X msg 225 184 disconnect;
#X text 44 100 outR OSC;
#X msg 225 166 connect 127.0.0.1 9966;
#X connect 0 0 1 0;
#X connect 1 0 7 0;
#X connect 1 1 2 0;
#X connect 4 0 10 0;
#X connect 6 0 8 0;
#X connect 7 0 5 0;
#X connect 8 0 7 0;
#X connect 10 0 7 0;
#X coords 0 -1 1 1 125 90 2 40 100;
#X restore 160 321 pd OSCout;
#N canvas 136 337 381 270 OSCout 0;
#X obj 131 30 inlet;
#X obj 131 55 packOSC;
#X floatatom 170 78 5 0 0 0 - - -;
#X text 204 79 bundle depth;
#X obj 48 151 bng 15 250 50 0 empty empty connect 20 7 0 8 -258113
-1 -1;
#X obj 47 120 tgl 15 0 empty empty connected 20 7 0 8 -4034 -45076
-1 1 1;
#X obj 48 169 bng 15 250 50 0 empty empty disconnect 20 7 0 8 -258113
-1 -1;
#X obj 131 220 udpsend;
#X msg 225 184 disconnect;
#X text 44 100 outLR OSC;
#X msg 225 166 connect 127.0.0.1 9968;
#X connect 0 0 1 0;
#X connect 1 0 7 0;
#X connect 1 1 2 0;
#X connect 4 0 10 0;
#X connect 6 0 8 0;
#X connect 7 0 5 0;
#X connect 8 0 7 0;
#X connect 10 0 7 0;
#X coords 0 -1 1 1 125 90 2 40 100;
#X restore 300 321 pd OSCout;
#N canvas 136 337 381 270 OSCout 0;
#X obj 131 30 inlet;
#X obj 131 55 packOSC;
#X floatatom 170 78 5 0 0 0 - - -;
#X text 204 79 bundle depth;
#X obj 48 151 bng 15 250 50 0 empty empty connect 20 7 0 8 -258113
-1 -1;
#X obj 47 120 tgl 15 0 empty empty connected 20 7 0 8 -4034 -45076
-1 1 1;
#X obj 48 169 bng 15 250 50 0 empty empty disconnect 20 7 0 8 -258113
-1 -1;
#X obj 131 220 udpsend;
#X msg 225 184 disconnect;
#X text 44 100 outRR OSC;
#X msg 225 166 connect 127.0.0.1 9970;
#X connect 0 0 1 0;
#X connect 1 0 7 0;
#X connect 1 1 2 0;
#X connect 4 0 10 0;
#X connect 6 0 8 0;
#X connect 7 0 5 0;
#X connect 8 0 7 0;
#X connect 10 0 7 0;
#X coords 0 -1 1 1 125 90 2 40 100;
#X restore 440 321 pd OSCout;
#X obj 339 158 unpackOSC;
#X obj 339 183 pipelist;
#X msg 650 14 send /mixer/get_channel_count;
#X obj 339 137 udpreceive 19901;
#X obj 339 231 print mixerReplies;
#X msg 670 58 send /mixer/channel/get_gain \$1;
#X floatatom 670 38 3 1 6 0 - - -;
#X floatatom 692 88 3 1 6 0 - - -;
#X obj 692 108 pack f f;
#X msg 738 86 -90;
#X msg 692 128 send /mixer/channel/set_gain \$1 \$2;
#N canvas 23 194 983 393 quadMixer 0;
#X obj 17 14 inlet;
#X obj 17 148 unpack f f f;
#X text 52 14 gain (-90 to 90) | x (-1 to 1) | y (-1 to 1);
#X obj 227 360 outlet;
#X obj 277 360 outlet;
#X obj 327 360 outlet;
#X obj 377 360 outlet;
#N canvas 290 233 662 435 outputLevels1 0;
#X obj 20 17 inlet;
#X obj 60 17 inlet;
#X obj 100 17 inlet;
#X obj 20 331 outlet;
#X obj 23 223 hsl 25 15 -90 0 0 0 empty empty empty -2 -8 0 10 -262144
-1 -1 4 1;
#X obj 20 200 -;
#X obj 60 82 pow 2;
#X obj 100 82 pow 2;
#X obj 60 107 +;
#X obj 60 129 sqrt;
#X obj 63 151 hsl 25 15 0 1 0 0 empty empty empty -2 -8 0 10 -262144
-1 -1 14 1;
#X obj 60 172 * 90;
#X obj 150 331 outlet;
#X obj 153 223 hsl 25 15 -90 0 0 0 empty empty empty -2 -8 0 10 -262144
-1 -1 0 1;
#X obj 150 200 -;
#X obj 190 82 pow 2;
#X obj 230 82 pow 2;
#X obj 190 107 +;
#X obj 190 129 sqrt;
#X obj 193 151 hsl 25 15 0 1 0 0 empty empty empty -2 -8 0 10 -262144
-1 -1 91 1;
#X obj 190 172 * 90;
#X obj 190 59 * -1;
#X obj 280 331 outlet;
#X obj 283 223 hsl 25 15 -90 0 0 0 empty empty empty -2 -8 0 10 -262144
-1 -1 18 1;
#X obj 280 200 -;
#X obj 320 82 pow 2;
#X obj 360 82 pow 2;
#X obj 320 107 +;
#X obj 320 129 sqrt;
#X obj 323 151 hsl 25 15 0 1 0 0 empty empty empty -2 -8 0 10 -262144
-1 -1 0 1;
#X obj 320 172 * 90;
#X obj 360 59 * -1;
#X obj 420 331 outlet;
#X obj 423 223 hsl 25 15 -90 0 0 0 empty empty empty -2 -8 0 10 -262144
-1 -1 0 1;
#X obj 420 200 -;
#X obj 460 82 pow 2;
#X obj 500 82 pow 2;
#X obj 460 107 +;
#X obj 460 129 sqrt;
#X obj 463 151 hsl 25 15 0 1 0 0 empty empty empty -2 -8 0 10 -262144
-1 -1 90 1;
#X obj 460 172 * 90;
#X obj 500 59 * -1;
#X obj 460 59 * -1;
#X msg 20 309 send /mixer/channel/set_gain 1 \$1;
#X msg 150 289 send /mixer/channel/set_gain 1 \$1;
#X msg 280 267 send /mixer/channel/set_gain 1 \$1;
#X msg 420 245 send /mixer/channel/set_gain 1 \$1;
#X connect 0 0 5 0;
#X connect 0 0 14 0;
#X connect 0 0 24 0;
#X connect 0 0 34 0;
#X connect 1 0 6 0;
#X connect 1 0 21 0;
#X connect 1 0 25 0;
#X connect 1 0 42 0;
#X connect 2 0 7 0;
#X connect 2 0 16 0;
#X connect 2 0 31 0;
#X connect 2 0 41 0;
#X connect 4 0 43 0;
#X connect 5 0 4 0;
#X connect 6 0 8 0;
#X connect 7 0 8 1;
#X connect 8 0 9 0;
#X connect 9 0 10 0;
#X connect 10 0 11 0;
#X connect 11 0 5 1;
#X connect 13 0 44 0;
#X connect 14 0 13 0;
#X connect 15 0 17 0;
#X connect 16 0 17 1;
#X connect 17 0 18 0;
#X connect 18 0 19 0;
#X connect 19 0 20 0;
#X connect 20 0 14 1;
#X connect 21 0 15 0;
#X connect 23 0 45 0;
#X connect 24 0 23 0;
#X connect 25 0 27 0;
#X connect 26 0 27 1;
#X connect 27 0 28 0;
#X connect 28 0 29 0;
#X connect 29 0 30 0;
#X connect 30 0 24 1;
#X connect 31 0 26 0;
#X connect 33 0 46 0;
#X connect 34 0 33 0;
#X connect 35 0 37 0;
#X connect 36 0 37 1;
#X connect 37 0 38 0;
#X connect 38 0 39 0;
#X connect 39 0 40 0;
#X connect 40 0 34 1;
#X connect 41 0 36 0;
#X connect 42 0 35 0;
#X connect 43 0 3 0;
#X connect 44 0 12 0;
#X connect 45 0 22 0;
#X connect 46 0 32 0;
#X restore 17 173 pd outputLevels1;
#X obj 127 148 unpack f f f;
#N canvas 290 233 662 435 outputLevels2 0;
#X obj 20 17 inlet;
#X obj 60 17 inlet;
#X obj 100 17 inlet;
#X obj 20 331 outlet;
#X obj 23 223 hsl 25 15 -90 0 0 0 empty empty empty -2 -8 0 10 -262144
-1 -1 0 1;
#X obj 20 200 -;
#X obj 60 82 pow 2;
#X obj 100 82 pow 2;
#X obj 60 107 +;
#X obj 60 129 sqrt;
#X obj 63 151 hsl 25 15 0 1 0 0 empty empty empty -2 -8 0 10 -262144
-1 -1 2400 1;
#X obj 60 172 * 90;
#X obj 150 331 outlet;
#X obj 153 223 hsl 25 15 -90 0 0 0 empty empty empty -2 -8 0 10 -262144
-1 -1 75 1;
#X obj 150 200 -;
#X obj 190 82 pow 2;
#X obj 230 82 pow 2;
#X obj 190 107 +;
#X obj 190 129 sqrt;
#X obj 193 151 hsl 25 15 0 1 0 0 empty empty empty -2 -8 0 10 -262144
-1 -1 2325 1;
#X obj 190 172 * 90;
#X obj 190 59 * -1;
#X obj 280 331 outlet;
#X obj 283 223 hsl 25 15 -90 0 0 0 empty empty empty -2 -8 0 10 -262144
-1 -1 1144 1;
#X obj 280 200 -;
#X obj 320 82 pow 2;
#X obj 360 82 pow 2;
#X obj 320 107 +;
#X obj 320 129 sqrt;
#X obj 323 151 hsl 25 15 0 1 0 0 empty empty empty -2 -8 0 10 -262144
-1 -1 1256 1;
#X obj 320 172 * 90;
#X obj 360 59 * -1;
#X obj 420 331 outlet;
#X obj 423 223 hsl 25 15 -90 0 0 0 empty empty empty -2 -8 0 10 -262144
-1 -1 2400 1;
#X obj 420 200 -;
#X obj 460 82 pow 2;
#X obj 500 82 pow 2;
#X obj 460 107 +;
#X obj 460 129 sqrt;
#X obj 463 151 hsl 25 15 0 1 0 0 empty empty empty -2 -8 0 10 -262144
-1 -1 0 1;
#X obj 460 172 * 90;
#X obj 500 59 * -1;
#X obj 460 59 * -1;
#X msg 20 309 send /mixer/channel/set_gain 2 \$1;
#X msg 150 289 send /mixer/channel/set_gain 2 \$1;
#X msg 280 267 send /mixer/channel/set_gain 2 \$1;
#X msg 420 245 send /mixer/channel/set_gain 2 \$1;
#X connect 0 0 5 0;
#X connect 0 0 14 0;
#X connect 0 0 24 0;
#X connect 0 0 34 0;
#X connect 1 0 6 0;
#X connect 1 0 21 0;
#X connect 1 0 25 0;
#X connect 1 0 42 0;
#X connect 2 0 7 0;
#X connect 2 0 16 0;
#X connect 2 0 31 0;
#X connect 2 0 41 0;
#X connect 4 0 43 0;
#X connect 5 0 4 0;
#X connect 6 0 8 0;
#X connect 7 0 8 1;
#X connect 8 0 9 0;
#X connect 9 0 10 0;
#X connect 10 0 11 0;
#X connect 11 0 5 1;
#X connect 13 0 44 0;
#X connect 14 0 13 0;
#X connect 15 0 17 0;
#X connect 16 0 17 1;
#X connect 17 0 18 0;
#X connect 18 0 19 0;
#X connect 19 0 20 0;
#X connect 20 0 14 1;
#X connect 21 0 15 0;
#X connect 23 0 45 0;
#X connect 24 0 23 0;
#X connect 25 0 27 0;
#X connect 26 0 27 1;
#X connect 27 0 28 0;
#X connect 28 0 29 0;
#X connect 29 0 30 0;
#X connect 30 0 24 1;
#X connect 31 0 26 0;
#X connect 33 0 46 0;
#X connect 34 0 33 0;
#X connect 35 0 37 0;
#X connect 36 0 37 1;
#X connect 37 0 38 0;
#X connect 38 0 39 0;
#X connect 39 0 40 0;
#X connect 40 0 34 1;
#X connect 41 0 36 0;
#X connect 42 0 35 0;
#X connect 43 0 3 0;
#X connect 44 0 12 0;
#X connect 45 0 22 0;
#X connect 46 0 32 0;
#X restore 127 173 pd outputLevels2;
#X obj 237 148 unpack f f f;
#N canvas 290 233 662 435 outputLevels3 0;
#X obj 20 17 inlet;
#X obj 60 17 inlet;
#X obj 100 17 inlet;
#X obj 20 331 outlet;
#X obj 23 223 hsl 25 15 -90 0 0 0 empty empty empty -2 -8 0 10 -262144
-1 -1 130 1;
#X obj 20 200 -;
#X obj 60 82 pow 2;
#X obj 100 82 pow 2;
#X obj 60 107 +;
#X obj 60 129 sqrt;
#X obj 63 151 hsl 25 15 0 1 0 0 empty empty empty -2 -8 0 10 -262144
-1 -1 2270 1;
#X obj 60 172 * 90;
#X obj 150 331 outlet;
#X obj 153 223 hsl 25 15 -90 0 0 0 empty empty empty -2 -8 0 10 -262144
-1 -1 573 1;
#X obj 150 200 -;
#X obj 190 82 pow 2;
#X obj 230 82 pow 2;
#X obj 190 107 +;
#X obj 190 129 sqrt;
#X obj 193 151 hsl 25 15 0 1 0 0 empty empty empty -2 -8 0 10 -262144
-1 -1 1827 1;
#X obj 190 172 * 90;
#X obj 190 59 * -1;
#X obj 280 331 outlet;
#X obj 283 223 hsl 25 15 -90 0 0 0 empty empty empty -2 -8 0 10 -262144
-1 -1 1053 1;
#X obj 280 200 -;
#X obj 320 82 pow 2;
#X obj 360 82 pow 2;
#X obj 320 107 +;
#X obj 320 129 sqrt;
#X obj 323 151 hsl 25 15 0 1 0 0 empty empty empty -2 -8 0 10 -262144
-1 -1 1347 1;
#X obj 320 172 * 90;
#X obj 360 59 * -1;
#X obj 420 331 outlet;
#X obj 423 223 hsl 25 15 -90 0 0 0 empty empty empty -2 -8 0 10 -262144
-1 -1 2400 1;
#X obj 420 200 -;
#X obj 460 82 pow 2;
#X obj 500 82 pow 2;
#X obj 460 107 +;
#X obj 460 129 sqrt;
#X obj 463 151 hsl 25 15 0 1 0 0 empty empty empty -2 -8 0 10 -262144
-1 -1 0 1;
#X obj 460 172 * 90;
#X obj 500 59 * -1;
#X obj 460 59 * -1;
#X msg 420 245 send /mixer/channel/set_gain 3 \$1;
#X msg 280 267 send /mixer/channel/set_gain 3 \$1;
#X msg 150 289 send /mixer/channel/set_gain 3 \$1;
#X msg 20 309 send /mixer/channel/set_gain 3 \$1;
#X connect 0 0 5 0;
#X connect 0 0 14 0;
#X connect 0 0 24 0;
#X connect 0 0 34 0;
#X connect 1 0 6 0;
#X connect 1 0 21 0;
#X connect 1 0 25 0;
#X connect 1 0 42 0;
#X connect 2 0 7 0;
#X connect 2 0 16 0;
#X connect 2 0 31 0;
#X connect 2 0 41 0;
#X connect 4 0 46 0;
#X connect 5 0 4 0;
#X connect 6 0 8 0;
#X connect 7 0 8 1;
#X connect 8 0 9 0;
#X connect 9 0 10 0;
#X connect 10 0 11 0;
#X connect 11 0 5 1;
#X connect 13 0 45 0;
#X connect 14 0 13 0;
#X connect 15 0 17 0;
#X connect 16 0 17 1;
#X connect 17 0 18 0;
#X connect 18 0 19 0;
#X connect 19 0 20 0;
#X connect 20 0 14 1;
#X connect 21 0 15 0;
#X connect 23 0 44 0;
#X connect 24 0 23 0;
#X connect 25 0 27 0;
#X connect 26 0 27 1;
#X connect 27 0 28 0;
#X connect 28 0 29 0;
#X connect 29 0 30 0;
#X connect 30 0 24 1;
#X connect 31 0 26 0;
#X connect 33 0 43 0;
#X connect 34 0 33 0;
#X connect 35 0 37 0;
#X connect 36 0 37 1;
#X connect 37 0 38 0;
#X connect 38 0 39 0;
#X connect 39 0 40 0;
#X connect 40 0 34 1;
#X connect 41 0 36 0;
#X connect 42 0 35 0;
#X connect 43 0 32 0;
#X connect 44 0 22 0;
#X connect 45 0 12 0;
#X connect 46 0 3 0;
#X restore 237 173 pd outputLevels3;
#X obj 347 148 unpack f f f;
#N canvas 290 233 662 435 outputLevels4 0;
#X obj 20 17 inlet;
#X obj 60 17 inlet;
#X obj 100 17 inlet;
#X obj 20 331 outlet;
#X obj 23 223 hsl 25 15 -90 0 0 0 empty empty empty -2 -8 0 10 -262144
-1 -1 1200 1;
#X obj 20 200 -;
#X obj 60 82 pow 2;
#X obj 100 82 pow 2;
#X obj 60 107 +;
#X obj 60 129 sqrt;
#X obj 63 151 hsl 25 15 0 1 0 0 empty empty empty -2 -8 0 10 -262144
-1 -1 1200 1;
#X obj 60 172 * 90;
#X obj 150 331 outlet;
#X obj 153 223 hsl 25 15 -90 0 0 0 empty empty empty -2 -8 0 10 -262144
-1 -1 2400 1;
#X obj 150 200 -;
#X obj 190 82 pow 2;
#X obj 230 82 pow 2;
#X obj 190 107 +;
#X obj 190 129 sqrt;
#X obj 193 151 hsl 25 15 0 1 0 0 empty empty empty -2 -8 0 10 -262144
-1 -1 0 1;
#X obj 190 172 * 90;
#X obj 190 59 * -1;
#X obj 280 331 outlet;
#X obj 283 223 hsl 25 15 -90 0 0 0 empty empty empty -2 -8 0 10 -262144
-1 -1 1200 1;
#X obj 280 200 -;
#X obj 320 82 pow 2;
#X obj 360 82 pow 2;
#X obj 320 107 +;
#X obj 320 129 sqrt;
#X obj 323 151 hsl 25 15 0 1 0 0 empty empty empty -2 -8 0 10 -262144
-1 -1 1200 1;
#X obj 320 172 * 90;
#X obj 360 59 * -1;
#X obj 420 331 outlet;
#X obj 423 223 hsl 25 15 -90 0 0 0 empty empty empty -2 -8 0 10 -262144
-1 -1 2400 1;
#X obj 420 200 -;
#X obj 460 82 pow 2;
#X obj 500 82 pow 2;
#X obj 460 107 +;
#X obj 460 129 sqrt;
#X obj 463 151 hsl 25 15 0 1 0 0 empty empty empty -2 -8 0 10 -262144
-1 -1 0 1;
#X obj 460 172 * 90;
#X obj 500 59 * -1;
#X obj 460 59 * -1;
#X msg 420 245 send /mixer/channel/set_gain 4 \$1;
#X msg 280 267 send /mixer/channel/set_gain 4 \$1;
#X msg 150 289 send /mixer/channel/set_gain 4 \$1;
#X msg 20 309 send /mixer/channel/set_gain 4 \$1;
#X connect 0 0 5 0;
#X connect 0 0 14 0;
#X connect 0 0 24 0;
#X connect 0 0 34 0;
#X connect 1 0 6 0;
#X connect 1 0 21 0;
#X connect 1 0 25 0;
#X connect 1 0 42 0;
#X connect 2 0 7 0;
#X connect 2 0 16 0;
#X connect 2 0 31 0;
#X connect 2 0 41 0;
#X connect 4 0 46 0;
#X connect 5 0 4 0;
#X connect 6 0 8 0;
#X connect 7 0 8 1;
#X connect 8 0 9 0;
#X connect 9 0 10 0;
#X connect 10 0 11 0;
#X connect 11 0 5 1;
#X connect 13 0 45 0;
#X connect 14 0 13 0;
#X connect 15 0 17 0;
#X connect 16 0 17 1;
#X connect 17 0 18 0;
#X connect 18 0 19 0;
#X connect 19 0 20 0;
#X connect 20 0 14 1;
#X connect 21 0 15 0;
#X connect 23 0 44 0;
#X connect 24 0 23 0;
#X connect 25 0 27 0;
#X connect 26 0 27 1;
#X connect 27 0 28 0;
#X connect 28 0 29 0;
#X connect 29 0 30 0;
#X connect 30 0 24 1;
#X connect 31 0 26 0;
#X connect 33 0 43 0;
#X connect 34 0 33 0;
#X connect 35 0 37 0;
#X connect 36 0 37 1;
#X connect 37 0 38 0;
#X connect 38 0 39 0;
#X connect 39 0 40 0;
#X connect 40 0 34 1;
#X connect 41 0 36 0;
#X connect 42 0 35 0;
#X connect 43 0 32 0;
#X connect 44 0 22 0;
#X connect 45 0 12 0;
#X connect 46 0 3 0;
#X restore 347 173 pd outputLevels4;
#X obj 457 148 unpack f f f;
#N canvas 290 233 662 435 outputLevels5 0;
#X obj 20 17 inlet;
#X obj 60 17 inlet;
#X obj 100 17 inlet;
#X obj 20 331 outlet;
#X obj 23 223 hsl 25 15 -90 0 0 0 empty empty empty -2 -8 0 10 -262144
-1 -1 1065 1;
#X obj 20 200 -;
#X obj 60 82 pow 2;
#X obj 100 82 pow 2;
#X obj 60 107 +;
#X obj 60 129 sqrt;
#X obj 63 151 hsl 25 15 0 1 0 0 empty empty empty -2 -8 0 10 -262144
-1 -1 1335 1;
#X obj 60 172 * 90;
#X obj 150 331 outlet;
#X obj 153 223 hsl 25 15 -90 0 0 0 empty empty empty -2 -8 0 10 -262144
-1 -1 2400 1;
#X obj 150 200 -;
#X obj 190 82 pow 2;
#X obj 230 82 pow 2;
#X obj 190 107 +;
#X obj 190 129 sqrt;
#X obj 193 151 hsl 25 15 0 1 0 0 empty empty empty -2 -8 0 10 -262144
-1 -1 0 1;
#X obj 190 172 * 90;
#X obj 190 59 * -1;
#X obj 280 331 outlet;
#X obj 283 223 hsl 25 15 -90 0 0 0 empty empty empty -2 -8 0 10 -262144
-1 -1 1065 1;
#X obj 280 200 -;
#X obj 320 82 pow 2;
#X obj 360 82 pow 2;
#X obj 320 107 +;
#X obj 320 129 sqrt;
#X obj 323 151 hsl 25 15 0 1 0 0 empty empty empty -2 -8 0 10 -262144
-1 -1 1335 1;
#X obj 320 172 * 90;
#X obj 360 59 * -1;
#X obj 420 331 outlet;
#X obj 423 223 hsl 25 15 -90 0 0 0 empty empty empty -2 -8 0 10 -262144
-1 -1 2400 1;
#X obj 420 200 -;
#X obj 460 82 pow 2;
#X obj 500 82 pow 2;
#X obj 460 107 +;
#X obj 460 129 sqrt;
#X obj 463 151 hsl 25 15 0 1 0 0 empty empty empty -2 -8 0 10 -262144
-1 -1 0 1;
#X obj 460 172 * 90;
#X obj 500 59 * -1;
#X obj 460 59 * -1;
#X msg 420 245 send /mixer/channel/set_gain 5 \$1;
#X msg 280 267 send /mixer/channel/set_gain 5 \$1;
#X msg 150 289 send /mixer/channel/set_gain 5 \$1;
#X msg 20 309 send /mixer/channel/set_gain 5 \$1;
#X connect 0 0 5 0;
#X connect 0 0 14 0;
#X connect 0 0 24 0;
#X connect 0 0 34 0;
#X connect 1 0 6 0;
#X connect 1 0 21 0;
#X connect 1 0 25 0;
#X connect 1 0 42 0;
#X connect 2 0 7 0;
#X connect 2 0 16 0;
#X connect 2 0 31 0;
#X connect 2 0 41 0;
#X connect 4 0 46 0;
#X connect 5 0 4 0;
#X connect 6 0 8 0;
#X connect 7 0 8 1;
#X connect 8 0 9 0;
#X connect 9 0 10 0;
#X connect 10 0 11 0;
#X connect 11 0 5 1;
#X connect 13 0 45 0;
#X connect 14 0 13 0;
#X connect 15 0 17 0;
#X connect 16 0 17 1;
#X connect 17 0 18 0;
#X connect 18 0 19 0;
#X connect 19 0 20 0;
#X connect 20 0 14 1;
#X connect 21 0 15 0;
#X connect 23 0 44 0;
#X connect 24 0 23 0;
#X connect 25 0 27 0;
#X connect 26 0 27 1;
#X connect 27 0 28 0;
#X connect 28 0 29 0;
#X connect 29 0 30 0;
#X connect 30 0 24 1;
#X connect 31 0 26 0;
#X connect 33 0 43 0;
#X connect 34 0 33 0;
#X connect 35 0 37 0;
#X connect 36 0 37 1;
#X connect 37 0 38 0;
#X connect 38 0 39 0;
#X connect 39 0 40 0;
#X connect 40 0 34 1;
#X connect 41 0 36 0;
#X connect 42 0 35 0;
#X connect 43 0 32 0;
#X connect 44 0 22 0;
#X connect 45 0 12 0;
#X connect 46 0 3 0;
#X restore 457 173 pd outputLevels5;
#X obj 567 148 unpack f f f;
#N canvas 290 233 662 435 outputLevels6 0;
#X obj 20 17 inlet;
#X obj 60 17 inlet;
#X obj 100 17 inlet;
#X obj 20 331 outlet;
#X obj 23 223 hsl 25 15 -90 0 0 0 empty empty empty -2 -8 0 10 -262144
-1 -1 1031 1;
#X obj 20 200 -;
#X obj 60 82 pow 2;
#X obj 100 82 pow 2;
#X obj 60 107 +;
#X obj 60 129 sqrt;
#X obj 63 151 hsl 25 15 0 1 0 0 empty empty empty -2 -8 0 10 -262144
-1 -1 1369 1;
#X obj 60 172 * 90;
#X obj 150 331 outlet;
#X obj 153 223 hsl 25 15 -90 0 0 0 empty empty empty -2 -8 0 10 -262144
-1 -1 2400 1;
#X obj 150 200 -;
#X obj 190 82 pow 2;
#X obj 230 82 pow 2;
#X obj 190 107 +;
#X obj 190 129 sqrt;
#X obj 193 151 hsl 25 15 0 1 0 0 empty empty empty -2 -8 0 10 -262144
-1 -1 0 1;
#X obj 190 172 * 90;
#X obj 190 59 * -1;
#X obj 280 331 outlet;
#X obj 283 223 hsl 25 15 -90 0 0 0 empty empty empty -2 -8 0 10 -262144
-1 -1 1031 1;
#X obj 280 200 -;
#X obj 320 82 pow 2;
#X obj 360 82 pow 2;
#X obj 320 107 +;
#X obj 320 129 sqrt;
#X obj 323 151 hsl 25 15 0 1 0 0 empty empty empty -2 -8 0 10 -262144
-1 -1 1369 1;
#X obj 320 172 * 90;
#X obj 360 59 * -1;
#X obj 420 331 outlet;
#X obj 423 223 hsl 25 15 -90 0 0 0 empty empty empty -2 -8 0 10 -262144
-1 -1 2400 1;
#X obj 420 200 -;
#X obj 460 82 pow 2;
#X obj 500 82 pow 2;
#X obj 460 107 +;
#X obj 460 129 sqrt;
#X obj 463 151 hsl 25 15 0 1 0 0 empty empty empty -2 -8 0 10 -262144
-1 -1 0 1;
#X obj 460 172 * 90;
#X obj 500 59 * -1;
#X obj 460 59 * -1;
#X msg 20 309 send /mixer/channel/set_gain 6 \$1;
#X msg 150 289 send /mixer/channel/set_gain 6 \$1;
#X msg 280 267 send /mixer/channel/set_gain 6 \$1;
#X msg 420 245 send /mixer/channel/set_gain 6 \$1;
#X connect 0 0 5 0;
#X connect 0 0 14 0;
#X connect 0 0 24 0;
#X connect 0 0 34 0;
#X connect 1 0 6 0;
#X connect 1 0 21 0;
#X connect 1 0 25 0;
#X connect 1 0 42 0;
#X connect 2 0 7 0;
#X connect 2 0 16 0;
#X connect 2 0 31 0;
#X connect 2 0 41 0;
#X connect 4 0 43 0;
#X connect 5 0 4 0;
#X connect 6 0 8 0;
#X connect 7 0 8 1;
#X connect 8 0 9 0;
#X connect 9 0 10 0;
#X connect 10 0 11 0;
#X connect 11 0 5 1;
#X connect 13 0 44 0;
#X connect 14 0 13 0;
#X connect 15 0 17 0;
#X connect 16 0 17 1;
#X connect 17 0 18 0;
#X connect 18 0 19 0;
#X connect 19 0 20 0;
#X connect 20 0 14 1;
#X connect 21 0 15 0;
#X connect 23 0 45 0;
#X connect 24 0 23 0;
#X connect 25 0 27 0;
#X connect 26 0 27 1;
#X connect 27 0 28 0;
#X connect 28 0 29 0;
#X connect 29 0 30 0;
#X connect 30 0 24 1;
#X connect 31 0 26 0;
#X connect 33 0 46 0;
#X connect 34 0 33 0;
#X connect 35 0 37 0;
#X connect 36 0 37 1;
#X connect 37 0 38 0;
#X connect 38 0 39 0;
#X connect 39 0 40 0;
#X connect 40 0 34 1;
#X connect 41 0 36 0;
#X connect 42 0 35 0;
#X connect 43 0 3 0;
#X connect 44 0 12 0;
#X connect 45 0 22 0;
#X connect 46 0 32 0;
#X restore 567 173 pd outputLevels6;
#X obj 17 45 routeOSC /1 /2 /3 /4 /5 /6 /7 /8 /9;
#X obj 677 148 unpack f f f;
#N canvas 290 233 662 435 outputLevels7 0;
#X obj 20 17 inlet;
#X obj 60 17 inlet;
#X obj 100 17 inlet;
#X obj 20 331 outlet;
#X obj 23 223 hsl 25 15 -90 0 0 0 empty empty empty -2 -8 0 10 -262144
-1 -1 0 1;
#X obj 20 200 -;
#X obj 60 82 pow 2;
#X obj 100 82 pow 2;
#X obj 60 107 +;
#X obj 60 129 sqrt;
#X obj 63 151 hsl 25 15 0 1 0 0 empty empty empty -2 -8 0 10 -262144
-1 -1 0 1;
#X obj 60 172 * 90;
#X obj 150 331 outlet;
#X obj 153 223 hsl 25 15 -90 0 0 0 empty empty empty -2 -8 0 10 -262144
-1 -1 0 1;
#X obj 150 200 -;
#X obj 190 82 pow 2;
#X obj 230 82 pow 2;
#X obj 190 107 +;
#X obj 190 129 sqrt;
#X obj 193 151 hsl 25 15 0 1 0 0 empty empty empty -2 -8 0 10 -262144
-1 -1 0 1;
#X obj 190 172 * 90;
#X obj 190 59 * -1;
#X obj 280 331 outlet;
#X obj 283 223 hsl 25 15 -90 0 0 0 empty empty empty -2 -8 0 10 -262144
-1 -1 0 1;
#X obj 280 200 -;
#X obj 320 82 pow 2;
#X obj 360 82 pow 2;
#X obj 320 107 +;
#X obj 320 129 sqrt;
#X obj 323 151 hsl 25 15 0 1 0 0 empty empty empty -2 -8 0 10 -262144
-1 -1 0 1;
#X obj 320 172 * 90;
#X obj 360 59 * -1;
#X obj 420 331 outlet;
#X obj 423 223 hsl 25 15 -90 0 0 0 empty empty empty -2 -8 0 10 -262144
-1 -1 0 1;
#X obj 420 200 -;
#X obj 460 82 pow 2;
#X obj 500 82 pow 2;
#X obj 460 107 +;
#X obj 460 129 sqrt;
#X obj 463 151 hsl 25 15 0 1 0 0 empty empty empty -2 -8 0 10 -262144
-1 -1 0 1;
#X obj 460 172 * 90;
#X obj 500 59 * -1;
#X obj 460 59 * -1;
#X msg 20 309 send /mixer/channel/set_gain 7 \$1;
#X msg 150 289 send /mixer/channel/set_gain 8 \$1;
#X msg 280 267 send /mixer/channel/set_gain 7 \$1;
#X msg 420 245 send /mixer/channel/set_gain 8 \$1;
#X connect 0 0 5 0;
#X connect 0 0 14 0;
#X connect 0 0 24 0;
#X connect 0 0 34 0;
#X connect 1 0 6 0;
#X connect 1 0 21 0;
#X connect 1 0 25 0;
#X connect 1 0 42 0;
#X connect 2 0 7 0;
#X connect 2 0 16 0;
#X connect 2 0 31 0;
#X connect 2 0 41 0;
#X connect 4 0 43 0;
#X connect 5 0 4 0;
#X connect 6 0 8 0;
#X connect 7 0 8 1;
#X connect 8 0 9 0;
#X connect 9 0 10 0;
#X connect 10 0 11 0;
#X connect 11 0 5 1;
#X connect 13 0 44 0;
#X connect 14 0 13 0;
#X connect 15 0 17 0;
#X connect 16 0 17 1;
#X connect 17 0 18 0;
#X connect 18 0 19 0;
#X connect 19 0 20 0;
#X connect 20 0 14 1;
#X connect 21 0 15 0;
#X connect 23 0 45 0;
#X connect 24 0 23 0;
#X connect 25 0 27 0;
#X connect 26 0 27 1;
#X connect 27 0 28 0;
#X connect 28 0 29 0;
#X connect 29 0 30 0;
#X connect 30 0 24 1;
#X connect 31 0 26 0;
#X connect 33 0 46 0;
#X connect 34 0 33 0;
#X connect 35 0 37 0;
#X connect 36 0 37 1;
#X connect 37 0 38 0;
#X connect 38 0 39 0;
#X connect 39 0 40 0;
#X connect 40 0 34 1;
#X connect 41 0 36 0;
#X connect 42 0 35 0;
#X connect 43 0 3 0;
#X connect 44 0 12 0;
#X connect 45 0 22 0;
#X connect 46 0 32 0;
#X restore 677 173 pd outputLevels7;
#X obj 787 148 unpack f f f;
#N canvas 290 233 662 435 outputLevels8 0;
#X obj 20 17 inlet;
#X obj 60 17 inlet;
#X obj 100 17 inlet;
#X obj 20 331 outlet;
#X obj 23 223 hsl 25 15 -90 0 0 0 empty empty empty -2 -8 0 10 -262144
-1 -1 1875 1;
#X obj 20 200 -;
#X obj 60 82 pow 2;
#X obj 100 82 pow 2;
#X obj 60 107 +;
#X obj 60 129 sqrt;
#X obj 63 151 hsl 25 15 0 1 0 0 empty empty empty -2 -8 0 10 -262144
-1 -1 0 1;
#X obj 60 172 * 90;
#X obj 150 331 outlet;
#X obj 153 223 hsl 25 15 -90 0 0 0 empty empty empty -2 -8 0 10 -262144
-1 -1 1875 1;
#X obj 150 200 -;
#X obj 190 82 pow 2;
#X obj 230 82 pow 2;
#X obj 190 107 +;
#X obj 190 129 sqrt;
#X obj 193 151 hsl 25 15 0 1 0 0 empty empty empty -2 -8 0 10 -262144
-1 -1 0 1;
#X obj 190 172 * 90;
#X obj 190 59 * -1;
#X obj 280 331 outlet;
#X obj 283 223 hsl 25 15 -90 0 0 0 empty empty empty -2 -8 0 10 -262144
-1 -1 1875 1;
#X obj 280 200 -;
#X obj 320 82 pow 2;
#X obj 360 82 pow 2;
#X obj 320 107 +;
#X obj 320 129 sqrt;
#X obj 323 151 hsl 25 15 0 1 0 0 empty empty empty -2 -8 0 10 -262144
-1 -1 0 1;
#X obj 320 172 * 90;
#X obj 360 59 * -1;
#X obj 420 331 outlet;
#X obj 423 223 hsl 25 15 -90 0 0 0 empty empty empty -2 -8 0 10 -262144
-1 -1 1875 1;
#X obj 420 200 -;
#X obj 460 82 pow 2;
#X obj 500 82 pow 2;
#X obj 460 107 +;
#X obj 460 129 sqrt;
#X obj 463 151 hsl 25 15 0 1 0 0 empty empty empty -2 -8 0 10 -262144
-1 -1 0 1;
#X obj 460 172 * 90;
#X obj 500 59 * -1;
#X obj 460 59 * -1;
#X msg 20 309 send /mixer/channel/set_gain 9 \$1;
#X msg 150 289 send /mixer/channel/set_gain 10 \$1;
#X msg 280 267 send /mixer/channel/set_gain 9 \$1;
#X msg 420 245 send /mixer/channel/set_gain 10 \$1;
#X connect 0 0 5 0;
#X connect 0 0 14 0;
#X connect 0 0 24 0;
#X connect 0 0 34 0;
#X connect 1 0 6 0;
#X connect 1 0 21 0;
#X connect 1 0 25 0;
#X connect 1 0 42 0;
#X connect 2 0 7 0;
#X connect 2 0 16 0;
#X connect 2 0 31 0;
#X connect 2 0 41 0;
#X connect 4 0 43 0;
#X connect 5 0 4 0;
#X connect 6 0 8 0;
#X connect 7 0 8 1;
#X connect 8 0 9 0;
#X connect 9 0 10 0;
#X connect 10 0 11 0;
#X connect 11 0 5 1;
#X connect 13 0 44 0;
#X connect 14 0 13 0;
#X connect 15 0 17 0;
#X connect 16 0 17 1;
#X connect 17 0 18 0;
#X connect 18 0 19 0;
#X connect 19 0 20 0;
#X connect 20 0 14 1;
#X connect 21 0 15 0;
#X connect 23 0 45 0;
#X connect 24 0 23 0;
#X connect 25 0 27 0;
#X connect 26 0 27 1;
#X connect 27 0 28 0;
#X connect 28 0 29 0;
#X connect 29 0 30 0;
#X connect 30 0 24 1;
#X connect 31 0 26 0;
#X connect 33 0 46 0;
#X connect 34 0 33 0;
#X connect 35 0 37 0;
#X connect 36 0 37 1;
#X connect 37 0 38 0;
#X connect 38 0 39 0;
#X connect 39 0 40 0;
#X connect 40 0 34 1;
#X connect 41 0 36 0;
#X connect 42 0 35 0;
#X connect 43 0 3 0;
#X connect 44 0 12 0;
#X connect 45 0 22 0;
#X connect 46 0 32 0;
#X restore 787 173 pd outputLevels8;
#X connect 0 0 18 0;
#X connect 1 0 7 0;
#X connect 1 1 7 1;
#X connect 1 2 7 2;
#X connect 7 0 3 0;
#X connect 7 1 4 0;
#X connect 7 2 5 0;
#X connect 7 3 6 0;
#X connect 8 0 9 0;
#X connect 8 1 9 1;
#X connect 8 2 9 2;
#X connect 9 0 3 0;
#X connect 9 1 4 0;
#X connect 9 2 5 0;
#X connect 9 3 6 0;
#X connect 10 0 11 0;
#X connect 10 1 11 1;
#X connect 10 2 11 2;
#X connect 11 0 3 0;
#X connect 11 1 4 0;
#X connect 11 2 5 0;
#X connect 11 3 6 0;
#X connect 12 0 13 0;
#X connect 12 1 13 1;
#X connect 12 2 13 2;
#X connect 13 0 3 0;
#X connect 13 1 4 0;
#X connect 13 2 5 0;
#X connect 13 3 6 0;
#X connect 14 0 15 0;
#X connect 14 1 15 1;
#X connect 14 2 15 2;
#X connect 15 0 3 0;
#X connect 15 1 4 0;
#X connect 15 2 5 0;
#X connect 15 3 6 0;
#X connect 16 0 17 0;
#X connect 16 1 17 1;
#X connect 16 2 17 2;
#X connect 17 0 3 0;
#X connect 17 1 4 0;
#X connect 17 2 5 0;
#X connect 17 3 6 0;
#X connect 18 0 1 0;
#X connect 18 1 8 0;
#X connect 18 2 10 0;
#X connect 18 3 12 0;
#X connect 18 4 14 0;
#X connect 18 5 16 0;
#X connect 18 6 19 0;
#X connect 18 7 21 0;
#X connect 19 0 20 0;
#X connect 19 1 20 1;
#X connect 19 2 20 2;
#X connect 20 0 3 0;
#X connect 20 1 4 0;
#X connect 20 2 5 0;
#X connect 20 3 6 0;
#X connect 21 0 22 0;
#X connect 21 1 22 1;
#X connect 21 2 22 2;
#X connect 22 0 3 0;
#X connect 22 1 4 0;
#X connect 22 2 5 0;
#X connect 22 3 6 0;
#X restore 415 260 pd quadMixer;
#X obj 309 261 packOSC;
#N canvas 492 58 460 622 virtualQuadMixer 0;
#X obj 80 324 hsl 201 25 -1 1 0 0 empty empty empty -2 -8 0 10 -258113
-1 -1 0 1;
#X obj 42 109 vsl 25 201 -1 1 0 0 empty empty empty 0 -9 0 10 -258113
-1 -1 0 1;
#X floatatom 47 328 3 1 6 0 - - -;
#X msg 47 47 1;
#X obj 83 283 bng 25 250 50 0 empty empty empty 17 7 0 10 -262144 -1
-1;
#X obj 83 198 bng 25 250 50 0 empty empty empty 17 7 0 10 -262144 -1
-1;
#X obj 83 113 bng 25 250 50 0 empty empty empty 17 7 0 10 -262144 -1
-1;
#X obj 168 283 bng 25 250 50 0 empty empty empty 17 7 0 10 -262144
-1 -1;
#X obj 168 198 bng 25 250 50 0 empty empty empty 17 7 0 10 -262144
-1 -1;
#X obj 168 113 bng 25 250 50 0 empty empty empty 17 7 0 10 -262144
-1 -1;
#X obj 253 283 bng 25 250 50 0 empty empty empty 17 7 0 10 -262144
-1 -1;
#X obj 253 198 bng 25 250 50 0 empty empty empty 17 7 0 10 -262144
-1 -1;
#X obj 253 113 bng 25 250 50 0 empty empty empty 17 7 0 10 -262144
-1 -1;
#X msg 78 47 0;
#X msg 110 47 -1;
#X msg 167 467 1;
#X msg 198 467 0;
#X msg 230 467 -1;
#X obj 293 142 vsl 40 170 -90 0 0 0 empty empty empty 0 -9 0 10 -262144
-1 -1 15800 1;
#X obj 19 553 outlet;
#X obj 293 66 bng 15 250 50 0 empty empty empty 17 7 0 10 -262144 -1
-1;
#X obj 19 499 pack f f f;
#X msg 19 529 send /quadMixer/1 \$1 \$2 \$3;
#X obj 302 320 bng 25 250 50 0 empty empty empty 17 7 0 10 -262144
-1 -1;
#X obj 302 110 bng 25 250 50 0 empty empty empty 17 7 0 10 -262144
-1 -1;
#X msg 294 85 -90;
#X msg 294 368 0;
#X obj 80 314 hsl 201 8 -1 1 0 0 empty empty empty -2 -8 0 10 -262144
-1 -1 0 1;
#X obj 69 109 vsl 8 201 -1 1 0 0 empty empty empty 0 -9 0 10 -262144
-1 -1 0 1;
#X obj 237 525 unpack f f f;
#X obj 236 19 tgl 15 0 empty empty empty 17 7 0 10 -262144 -1 -1 0
-0.38;
#X obj 236 0 bng 15 250 50 0 empty empty empty 17 7 0 10 -262144 -1
-1;
#X obj 236 38 select 0;
#X connect 0 0 21 1;
#X connect 0 0 20 0;
#X connect 1 0 21 2;
#X connect 1 0 20 0;
#X connect 3 0 21 2;
#X connect 3 0 31 0;
#X connect 4 0 14 0;
#X connect 4 0 17 0;
#X connect 5 0 13 0;
#X connect 5 0 17 0;
#X connect 6 0 17 0;
#X connect 6 0 3 0;
#X connect 7 0 14 0;
#X connect 7 0 16 0;
#X connect 8 0 13 0;
#X connect 8 0 16 0;
#X connect 9 0 3 0;
#X connect 9 0 16 0;
#X connect 10 0 14 0;
#X connect 10 0 15 0;
#X connect 11 0 13 0;
#X connect 11 0 15 0;
#X connect 12 0 3 0;
#X connect 12 0 15 0;
#X connect 13 0 21 2;
#X connect 13 0 31 0;
#X connect 14 0 21 2;
#X connect 14 0 31 0;
#X connect 15 0 21 1;
#X connect 15 0 31 0;
#X connect 16 0 21 1;
#X connect 16 0 31 0;
#X connect 17 0 21 1;
#X connect 17 0 31 0;
#X connect 18 0 21 0;
#X connect 20 0 18 0;
#X connect 21 0 22 0;
#X connect 21 0 29 0;
#X connect 22 0 19 0;
#X connect 23 0 25 0;
#X connect 24 0 26 0;
#X connect 25 0 18 0;
#X connect 26 0 18 0;
#X connect 29 1 27 0;
#X connect 29 2 28 0;
#X connect 30 0 32 0;
#X connect 31 0 30 0;
#X connect 32 0 20 0;
#X coords 0 -1 1 1 295 245 2 40 105;
#X restore 13 4 pd virtualQuadMixer;
#X obj 13 255 print quadTest;
#X floatatom 728 169 5 -90 0 0 - - -;
#X floatatom 763 169 5 -1 1 0 - - -;
#X floatatom 798 169 5 -1 1 0 - - -;
#X obj 728 192 pack f f f;
#X obj 689 167 bng 15 250 50 0 empty empty empty 17 7 0 10 -262144
-1 -1;
#X msg 728 216 send /quadMixer/1 \$1 \$2 \$3;
#X obj 589 229 print other;
#N canvas 11 50 896 686 quadMixCTL 0;
#X obj 16 6 inlet;
#X obj 349 580 pack f f f;
#X msg 349 604 send /quadMixer/1 \$1 \$2 \$3;
#X obj 392 530 pack f f f;
#X obj 436 480 pack f f f;
#X obj 479 430 pack f f f;
#X obj 523 380 pack f f f;
#X obj 566 330 pack f f f;
#X msg 392 554 send /quadMixer/2 \$1 \$2 \$3;
#X msg 436 504 send /quadMixer/3 \$1 \$2 \$3;
#X msg 479 454 send /quadMixer/4 \$1 \$2 \$3;
#X msg 523 404 send /quadMixer/5 \$1 \$2 \$3;
#X msg 566 354 send /quadMixer/6 \$1 \$2 \$3;
#X obj 24 645 outlet;
#X obj 16 362 quadMixRouteBox;
#X obj 53 332 quadMixRouteBox;
#X obj 90 302 quadMixRouteBox;
#X obj 127 272 quadMixRouteBox;
#X obj 164 242 quadMixRouteBox;
#X obj 201 212 quadMixRouteBox;
#X obj 16 68 routeOSC /multi1 /multi2 /multi3 /multi4 /multi5 /multi6
/multi7 /multi8 /multi9;
#X obj 419 68 routeOSC /vol1 /vol2 /vol3 /vol4 /vol5 /vol6 /vol7 /vol8
/vol9;
#X obj 599 280 pack f f f;
#X obj 643 230 pack f f f;
#X obj 686 180 pack f f f;
#X obj 238 182 quadMixRouteBox;
#X obj 275 152 quadMixRouteBox;
#X obj 312 122 quadMixRouteBox;
#X msg 599 304 send /quadMixer/7 \$1 \$2 \$3;
#X msg 643 254 send /quadMixer/8 \$1 \$2 \$3;
#X msg 686 204 send /quadMixer/9 \$1 \$2 \$3;
#N canvas 75 75 891 330 fxXX-\$0 0;
#X obj -9 29 inlet;
#X obj -9 245 outlet;
#X msg -9 218 send /mixer/channel/set_gain 1 \$1;
#X msg 34 198 send /mixer/channel/set_gain 1 \$1;
#X obj -9 62 routeOSC /fx1a /fx2a /fx3a /fx4a /fx5a /fx6a;
#X msg 78 178 send /mixer/channel/set_gain 1 \$1;
#X msg 121 158 send /mixer/channel/set_gain 1 \$1;
#X msg 165 138 send /mixer/channel/set_gain 1 \$1;
#X msg 208 118 send /mixer/channel/set_gain 1 \$1;
#X obj 421 245 outlet;
#X msg 421 218 send /mixer/channel/set_gain 1 \$1;
#X msg 464 198 send /mixer/channel/set_gain 1 \$1;
#X obj 421 62 routeOSC /fx1a /fx2a /fx3a /fx4a /fx5a /fx6a;
#X msg 508 178 send /mixer/channel/set_gain 1 \$1;
#X msg 551 158 send /mixer/channel/set_gain 1 \$1;
#X msg 595 138 send /mixer/channel/set_gain 1 \$1;
#X msg 638 118 send /mixer/channel/set_gain 1 \$1;
#X obj 682 87 outlet;
#X connect 0 0 4 0;
#X connect 2 0 1 0;
#X connect 3 0 1 0;
#X connect 4 0 2 0;
#X connect 4 1 3 0;
#X connect 4 2 5 0;
#X connect 4 3 6 0;
#X connect 4 4 7 0;
#X connect 4 5 8 0;
#X connect 4 6 12 0;
#X connect 5 0 1 0;
#X connect 6 0 1 0;
#X connect 7 0 1 0;
#X connect 8 0 1 0;
#X connect 10 0 9 0;
#X connect 11 0 9 0;
#X connect 12 0 10 0;
#X connect 12 1 11 0;
#X connect 12 2 13 0;
#X connect 12 3 14 0;
#X connect 12 4 15 0;
#X connect 12 5 16 0;
#X connect 12 6 17 0;
#X connect 13 0 9 0;
#X connect 14 0 9 0;
#X connect 15 0 9 0;
#X connect 16 0 9 0;
#X restore 752 102 pd fxXX-\$0;
#X obj 752 163 outlet;
#X obj 780 143 outlet;
#X obj 809 124 print unknownQuadMixCTLmsg;
#X connect 0 0 20 0;
#X connect 1 0 2 0;
#X connect 2 0 13 0;
#X connect 3 0 8 0;
#X connect 4 0 9 0;
#X connect 5 0 10 0;
#X connect 6 0 11 0;
#X connect 7 0 12 0;
#X connect 8 0 13 0;
#X connect 9 0 13 0;
#X connect 10 0 13 0;
#X connect 11 0 13 0;
#X connect 12 0 13 0;
#X connect 14 0 1 0;
#X connect 14 1 1 1;
#X connect 14 2 1 2;
#X connect 15 0 3 0;
#X connect 15 1 3 1;
#X connect 15 2 3 2;
#X connect 16 0 4 0;
#X connect 16 1 4 1;
#X connect 16 2 4 2;
#X connect 17 0 5 0;
#X connect 17 1 5 1;
#X connect 17 2 5 2;
#X connect 18 0 6 0;
#X connect 18 1 6 1;
#X connect 18 2 6 2;
#X connect 19 0 7 0;
#X connect 19 1 7 1;
#X connect 19 2 7 2;
#X connect 20 0 14 0;
#X connect 20 1 15 0;
#X connect 20 2 16 0;
#X connect 20 3 17 0;
#X connect 20 4 18 0;
#X connect 20 5 19 0;
#X connect 20 6 25 0;
#X connect 20 7 26 0;
#X connect 20 8 27 0;
#X connect 20 9 21 0;
#X connect 21 0 1 0;
#X connect 21 1 3 0;
#X connect 21 2 4 0;
#X connect 21 3 5 0;
#X connect 21 4 6 0;
#X connect 21 5 7 0;
#X connect 21 6 22 0;
#X connect 21 7 23 0;
#X connect 21 8 24 0;
#X connect 21 9 31 0;
#X connect 22 0 28 0;
#X connect 23 0 29 0;
#X connect 24 0 30 0;
#X connect 25 0 22 0;
#X connect 25 1 22 1;
#X connect 25 2 22 2;
#X connect 26 0 23 0;
#X connect 26 1 23 1;
#X connect 26 2 23 2;
#X connect 27 0 24 0;
#X connect 27 1 24 1;
#X connect 27 2 24 2;
#X connect 28 0 13 0;
#X connect 29 0 13 0;
#X connect 30 0 13 0;
#X connect 31 0 32 0;
#X connect 31 1 33 0;
#X connect 31 2 34 0;
#X restore 489 231 pd quadMixCTL;
#N canvas 86 105 381 270 OSCout 0;
#X obj 131 30 inlet;
#X obj 131 55 packOSC;
#X floatatom 170 78 5 0 0 0 - - -;
#X text 204 79 bundle depth;
#X obj 48 151 bng 15 250 50 0 empty empty connect 20 7 0 8 -258113
-1 -1;
#X obj 47 120 tgl 15 0 empty empty connected 20 7 0 8 -4034 -45076
-1 1 1;
#X obj 48 169 bng 15 250 50 0 empty empty disconnect 20 7 0 8 -258113
-1 -1;
#X obj 131 220 udpsend;
#X msg 225 184 disconnect;
#X msg 225 166 connect 127.0.0.1 9960;
#X text 44 100 miniKPsends OSC;
#X connect 0 0 1 0;
#X connect 1 0 7 0;
#X connect 1 1 2 0;
#X connect 4 0 9 0;
#X connect 6 0 8 0;
#X connect 7 0 5 0;
#X connect 8 0 7 0;
#X connect 9 0 7 0;
#X coords 0 -1 1 1 125 90 2 40 100;
#X restore 580 321 pd OSCout;
#N canvas 136 337 381 270 OSCout 0;
#X obj 131 30 inlet;
#X obj 131 55 packOSC;
#X floatatom 170 78 5 0 0 0 - - -;
#X text 204 79 bundle depth;
#X obj 48 151 bng 15 250 50 0 empty empty connect 20 7 0 8 -258113
-1 -1;
#X obj 47 120 tgl 15 0 empty empty connected 20 7 0 8 -4034 -45076
-1 1 1;
#X obj 48 169 bng 15 250 50 0 empty empty disconnect 20 7 0 8 -258113
-1 -1;
#X obj 131 220 udpsend;
#X msg 225 184 disconnect;
#X text 44 100 KPsends OSC;
#X msg 225 166 connect 127.0.0.1 9962;
#X connect 0 0 1 0;
#X connect 1 0 7 0;
#X connect 1 1 2 0;
#X connect 4 0 10 0;
#X connect 6 0 8 0;
#X connect 7 0 5 0;
#X connect 8 0 7 0;
#X connect 10 0 7 0;
#X coords 0 -1 1 1 125 90 2 40 100;
#X restore 720 321 pd OSCout;
#X obj 339 205 routeOSC /mixer /quadMixer /quadMixCTL;
#X connect 4 0 5 0;
#X connect 4 1 5 1;
#X connect 5 0 29 0;
#X connect 7 0 4 0;
#X connect 10 0 9 0;
#X connect 11 0 12 0;
#X connect 12 0 14 0;
#X connect 13 0 12 1;
#X connect 15 0 0 0;
#X connect 15 1 1 0;
#X connect 15 2 2 0;
#X connect 15 3 3 0;
#X connect 16 0 4 0;
#X connect 17 0 18 0;
#X connect 17 0 16 0;
#X connect 19 0 22 0;
#X connect 20 0 22 1;
#X connect 20 0 23 0;
#X connect 21 0 22 2;
#X connect 22 0 24 0;
#X connect 23 0 22 0;
#X connect 26 0 16 0;
#X connect 26 1 27 0;
#X connect 26 2 28 0;
#X connect 29 0 8 0;
#X connect 29 1 15 0;
#X connect 29 2 26 0;
#X connect 29 3 25 0;
