#N canvas 35 226 831 430 10;
#N canvas 136 337 381 270 OSCout 0;
#X obj 131 30 inlet;
#X obj 131 55 packOSC;
#X floatatom 170 78 5 0 0 0 - - -;
#X text 204 79 bundle depth;
#X obj 48 151 bng 15 250 50 0 empty empty connect 20 7 0 8 -258113
-1 -1;
#X obj 47 120 tgl 15 0 empty empty connected 20 7 0 8 -4034 -45076
-1 1 1;
#X obj 48 169 bng 15 250 50 0 empty empty disconnect 20 7 0 8 -258113
-1 -1;
#X obj 131 220 udpsend;
#X msg 225 184 disconnect;
#X msg 225 166 connect 127.0.0.1 9964;
#X text 44 100 outL OSC;
#X connect 0 0 1 0;
#X connect 1 0 7 0;
#X connect 1 1 2 0;
#X connect 4 0 9 0;
#X connect 6 0 8 0;
#X connect 7 0 5 0;
#X connect 8 0 7 0;
#X connect 9 0 7 0;
#X coords 0 -1 1 1 125 90 2 40 100;
#X restore 20 321 pd OSCout;
#N canvas 136 337 381 270 OSCout 0;
#X obj 131 30 inlet;
#X obj 131 55 packOSC;
#X floatatom 170 78 5 0 0 0 - - -;
#X text 204 79 bundle depth;
#X obj 48 151 bng 15 250 50 0 empty empty connect 20 7 0 8 -258113
-1 -1;
#X obj 47 120 tgl 15 0 empty empty connected 20 7 0 8 -4034 -45076
-1 1 1;
#X obj 48 169 bng 15 250 50 0 empty empty disconnect 20 7 0 8 -258113
-1 -1;
#X obj 131 220 udpsend;
#X msg 225 184 disconnect;
#X text 44 100 outR OSC;
#X msg 225 166 connect 127.0.0.1 9966;
#X connect 0 0 1 0;
#X connect 1 0 7 0;
#X connect 1 1 2 0;
#X connect 4 0 10 0;
#X connect 6 0 8 0;
#X connect 7 0 5 0;
#X connect 8 0 7 0;
#X connect 10 0 7 0;
#X coords 0 -1 1 1 125 90 2 40 100;
#X restore 160 321 pd OSCout;
#N canvas 136 337 381 270 OSCout 0;
#X obj 131 30 inlet;
#X obj 131 55 packOSC;
#X floatatom 170 78 5 0 0 0 - - -;
#X text 204 79 bundle depth;
#X obj 48 151 bng 15 250 50 0 empty empty connect 20 7 0 8 -258113
-1 -1;
#X obj 47 120 tgl 15 0 empty empty connected 20 7 0 8 -4034 -45076
-1 1 1;
#X obj 48 169 bng 15 250 50 0 empty empty disconnect 20 7 0 8 -258113
-1 -1;
#X obj 131 220 udpsend;
#X msg 225 184 disconnect;
#X text 44 100 outLR OSC;
#X msg 225 166 connect 127.0.0.1 9968;
#X connect 0 0 1 0;
#X connect 1 0 7 0;
#X connect 1 1 2 0;
#X connect 4 0 10 0;
#X connect 6 0 8 0;
#X connect 7 0 5 0;
#X connect 8 0 7 0;
#X connect 10 0 7 0;
#X coords 0 -1 1 1 125 90 2 40 100;
#X restore 300 321 pd OSCout;
#N canvas 136 337 381 270 OSCout 0;
#X obj 131 30 inlet;
#X obj 131 55 packOSC;
#X floatatom 170 78 5 0 0 0 - - -;
#X text 204 79 bundle depth;
#X obj 48 151 bng 15 250 50 0 empty empty connect 20 7 0 8 -258113
-1 -1;
#X obj 47 120 tgl 15 0 empty empty connected 20 7 0 8 -4034 -45076
-1 1 1;
#X obj 48 169 bng 15 250 50 0 empty empty disconnect 20 7 0 8 -258113
-1 -1;
#X obj 131 220 udpsend;
#X msg 225 184 disconnect;
#X text 44 100 outRR OSC;
#X msg 225 166 connect 127.0.0.1 9970;
#X connect 0 0 1 0;
#X connect 1 0 7 0;
#X connect 1 1 2 0;
#X connect 4 0 10 0;
#X connect 6 0 8 0;
#X connect 7 0 5 0;
#X connect 8 0 7 0;
#X connect 10 0 7 0;
#X coords 0 -1 1 1 125 90 2 40 100;
#X restore 440 321 pd OSCout;
#X obj 18 15 unpackOSC;
#X obj 18 40 pipelist;
#X obj 18 -6 udpreceive 19901;
#N canvas 23 194 983 393 quadMixer 0;
#X obj 17 14 inlet;
#X obj 17 148 unpack f f f;
#X text 52 14 gain (-90 to 90) | x (-1 to 1) | y (-1 to 1);
#X obj 227 360 outlet;
#X obj 277 360 outlet;
#X obj 327 360 outlet;
#X obj 377 360 outlet;
#N canvas 290 233 662 435 outputLevels1 0;
#X obj 20 17 inlet;
#X obj 60 17 inlet;
#X obj 100 17 inlet;
#X obj 20 331 outlet;
#X obj 23 223 hsl 25 15 -90 0 0 0 empty empty empty -2 -8 0 10 -262144
-1 -1 1393 1;
#X obj 20 200 -;
#X obj 60 82 pow 2;
#X obj 100 82 pow 2;
#X obj 60 107 +;
#X obj 60 129 sqrt;
#X obj 63 151 hsl 25 15 0 1 0 0 empty empty empty -2 -8 0 10 -262144
-1 -1 0 1;
#X obj 60 172 * 90;
#X obj 150 331 outlet;
#X obj 153 223 hsl 25 15 -90 0 0 0 empty empty empty -2 -8 0 10 -262144
-1 -1 1370 1;
#X obj 150 200 -;
#X obj 190 82 pow 2;
#X obj 230 82 pow 2;
#X obj 190 107 +;
#X obj 190 129 sqrt;
#X obj 193 151 hsl 25 15 0 1 0 0 empty empty empty -2 -8 0 10 -262144
-1 -1 23 1;
#X obj 190 172 * 90;
#X obj 190 59 * -1;
#X obj 280 331 outlet;
#X obj 283 223 hsl 25 15 -90 0 0 0 empty empty empty -2 -8 0 10 -262144
-1 -1 0 1;
#X obj 280 200 -;
#X obj 320 82 pow 2;
#X obj 360 82 pow 2;
#X obj 320 107 +;
#X obj 320 129 sqrt;
#X obj 323 151 hsl 25 15 0 1 0 0 empty empty empty -2 -8 0 10 -262144
-1 -1 2391 1;
#X obj 320 172 * 90;
#X obj 360 59 * -1;
#X obj 420 331 outlet;
#X obj 423 223 hsl 25 15 -90 0 0 0 empty empty empty -2 -8 0 10 -262144
-1 -1 0 1;
#X obj 420 200 -;
#X obj 460 82 pow 2;
#X obj 500 82 pow 2;
#X obj 460 107 +;
#X obj 460 129 sqrt;
#X obj 463 151 hsl 25 15 0 1 0 0 empty empty empty -2 -8 0 10 -262144
-1 -1 2391 1;
#X obj 460 172 * 90;
#X obj 500 59 * -1;
#X obj 460 59 * -1;
#X msg 20 309 send /mixer/channel/set_gain 1 \$1;
#X msg 150 289 send /mixer/channel/set_gain 1 \$1;
#X msg 280 267 send /mixer/channel/set_gain 1 \$1;
#X msg 420 245 send /mixer/channel/set_gain 1 \$1;
#X connect 0 0 5 0;
#X connect 0 0 14 0;
#X connect 0 0 24 0;
#X connect 0 0 34 0;
#X connect 1 0 6 0;
#X connect 1 0 21 0;
#X connect 1 0 25 0;
#X connect 1 0 42 0;
#X connect 2 0 7 0;
#X connect 2 0 16 0;
#X connect 2 0 31 0;
#X connect 2 0 41 0;
#X connect 4 0 43 0;
#X connect 5 0 4 0;
#X connect 6 0 8 0;
#X connect 7 0 8 1;
#X connect 8 0 9 0;
#X connect 9 0 10 0;
#X connect 10 0 11 0;
#X connect 11 0 5 1;
#X connect 13 0 44 0;
#X connect 14 0 13 0;
#X connect 15 0 17 0;
#X connect 16 0 17 1;
#X connect 17 0 18 0;
#X connect 18 0 19 0;
#X connect 19 0 20 0;
#X connect 20 0 14 1;
#X connect 21 0 15 0;
#X connect 23 0 45 0;
#X connect 24 0 23 0;
#X connect 25 0 27 0;
#X connect 26 0 27 1;
#X connect 27 0 28 0;
#X connect 28 0 29 0;
#X connect 29 0 30 0;
#X connect 30 0 24 1;
#X connect 31 0 26 0;
#X connect 33 0 46 0;
#X connect 34 0 33 0;
#X connect 35 0 37 0;
#X connect 36 0 37 1;
#X connect 37 0 38 0;
#X connect 38 0 39 0;
#X connect 39 0 40 0;
#X connect 40 0 34 1;
#X connect 41 0 36 0;
#X connect 42 0 35 0;
#X connect 43 0 3 0;
#X connect 44 0 12 0;
#X connect 45 0 22 0;
#X connect 46 0 32 0;
#X restore 17 173 pd outputLevels1;
#X obj 127 148 unpack f f f;
#N canvas 290 233 662 435 outputLevels2 0;
#X obj 20 17 inlet;
#X obj 60 17 inlet;
#X obj 100 17 inlet;
#X obj 20 331 outlet;
#X obj 23 223 hsl 25 15 -90 0 0 0 empty empty empty -2 -8 0 10 -262144
-1 -1 2400 1;
#X obj 20 200 -;
#X obj 60 82 pow 2;
#X obj 100 82 pow 2;
#X obj 60 107 +;
#X obj 60 129 sqrt;
#X obj 63 151 hsl 25 15 0 1 0 0 empty empty empty -2 -8 0 10 -262144
-1 -1 0 1;
#X obj 60 172 * 90;
#X obj 150 331 outlet;
#X obj 153 223 hsl 25 15 -90 0 0 0 empty empty empty -2 -8 0 10 -262144
-1 -1 2219 1;
#X obj 150 200 -;
#X obj 190 82 pow 2;
#X obj 230 82 pow 2;
#X obj 190 107 +;
#X obj 190 129 sqrt;
#X obj 193 151 hsl 25 15 0 1 0 0 empty empty empty -2 -8 0 10 -262144
-1 -1 181 1;
#X obj 190 172 * 90;
#X obj 190 59 * -1;
#X obj 280 331 outlet;
#X obj 283 223 hsl 25 15 -90 0 0 0 empty empty empty -2 -8 0 10 -262144
-1 -1 1146 1;
#X obj 280 200 -;
#X obj 320 82 pow 2;
#X obj 360 82 pow 2;
#X obj 320 107 +;
#X obj 320 129 sqrt;
#X obj 323 151 hsl 25 15 0 1 0 0 empty empty empty -2 -8 0 10 -262144
-1 -1 1254 1;
#X obj 320 172 * 90;
#X obj 360 59 * -1;
#X obj 420 331 outlet;
#X obj 423 223 hsl 25 15 -90 0 0 0 empty empty empty -2 -8 0 10 -262144
-1 -1 1133 1;
#X obj 420 200 -;
#X obj 460 82 pow 2;
#X obj 500 82 pow 2;
#X obj 460 107 +;
#X obj 460 129 sqrt;
#X obj 463 151 hsl 25 15 0 1 0 0 empty empty empty -2 -8 0 10 -262144
-1 -1 1267 1;
#X obj 460 172 * 90;
#X obj 500 59 * -1;
#X obj 460 59 * -1;
#X msg 20 309 send /mixer/channel/set_gain 2 \$1;
#X msg 150 289 send /mixer/channel/set_gain 2 \$1;
#X msg 280 267 send /mixer/channel/set_gain 2 \$1;
#X msg 420 245 send /mixer/channel/set_gain 2 \$1;
#X connect 0 0 5 0;
#X connect 0 0 14 0;
#X connect 0 0 24 0;
#X connect 0 0 34 0;
#X connect 1 0 6 0;
#X connect 1 0 21 0;
#X connect 1 0 25 0;
#X connect 1 0 42 0;
#X connect 2 0 7 0;
#X connect 2 0 16 0;
#X connect 2 0 31 0;
#X connect 2 0 41 0;
#X connect 4 0 43 0;
#X connect 5 0 4 0;
#X connect 6 0 8 0;
#X connect 7 0 8 1;
#X connect 8 0 9 0;
#X connect 9 0 10 0;
#X connect 10 0 11 0;
#X connect 11 0 5 1;
#X connect 13 0 44 0;
#X connect 14 0 13 0;
#X connect 15 0 17 0;
#X connect 16 0 17 1;
#X connect 17 0 18 0;
#X connect 18 0 19 0;
#X connect 19 0 20 0;
#X connect 20 0 14 1;
#X connect 21 0 15 0;
#X connect 23 0 45 0;
#X connect 24 0 23 0;
#X connect 25 0 27 0;
#X connect 26 0 27 1;
#X connect 27 0 28 0;
#X connect 28 0 29 0;
#X connect 29 0 30 0;
#X connect 30 0 24 1;
#X connect 31 0 26 0;
#X connect 33 0 46 0;
#X connect 34 0 33 0;
#X connect 35 0 37 0;
#X connect 36 0 37 1;
#X connect 37 0 38 0;
#X connect 38 0 39 0;
#X connect 39 0 40 0;
#X connect 40 0 34 1;
#X connect 41 0 36 0;
#X connect 42 0 35 0;
#X connect 43 0 3 0;
#X connect 44 0 12 0;
#X connect 45 0 22 0;
#X connect 46 0 32 0;
#X restore 127 173 pd outputLevels2;
#X obj 237 148 unpack f f f;
#N canvas 290 233 662 435 outputLevels3 0;
#X obj 20 17 inlet;
#X obj 60 17 inlet;
#X obj 100 17 inlet;
#X obj 20 331 outlet;
#X obj 23 223 hsl 25 15 -90 0 0 0 empty empty empty -2 -8 0 10 -262144
-1 -1 2377 1;
#X obj 20 200 -;
#X obj 60 82 pow 2;
#X obj 100 82 pow 2;
#X obj 60 107 +;
#X obj 60 129 sqrt;
#X obj 63 151 hsl 25 15 0 1 0 0 empty empty empty -2 -8 0 10 -262144
-1 -1 23 1;
#X obj 60 172 * 90;
#X obj 150 331 outlet;
#X obj 153 223 hsl 25 15 -90 0 0 0 empty empty empty -2 -8 0 10 -262144
-1 -1 2400 1;
#X obj 150 200 -;
#X obj 190 82 pow 2;
#X obj 230 82 pow 2;
#X obj 190 107 +;
#X obj 190 129 sqrt;
#X obj 193 151 hsl 25 15 0 1 0 0 empty empty empty -2 -8 0 10 -262144
-1 -1 0 1;
#X obj 190 172 * 90;
#X obj 190 59 * -1;
#X obj 280 331 outlet;
#X obj 283 223 hsl 25 15 -90 0 0 0 empty empty empty -2 -8 0 10 -262144
-1 -1 1146 1;
#X obj 280 200 -;
#X obj 320 82 pow 2;
#X obj 360 82 pow 2;
#X obj 320 107 +;
#X obj 320 129 sqrt;
#X obj 323 151 hsl 25 15 0 1 0 0 empty empty empty -2 -8 0 10 -262144
-1 -1 1254 1;
#X obj 320 172 * 90;
#X obj 360 59 * -1;
#X obj 420 331 outlet;
#X obj 423 223 hsl 25 15 -90 0 0 0 empty empty empty -2 -8 0 10 -262144
-1 -1 1146 1;
#X obj 420 200 -;
#X obj 460 82 pow 2;
#X obj 500 82 pow 2;
#X obj 460 107 +;
#X obj 460 129 sqrt;
#X obj 463 151 hsl 25 15 0 1 0 0 empty empty empty -2 -8 0 10 -262144
-1 -1 1254 1;
#X obj 460 172 * 90;
#X obj 500 59 * -1;
#X obj 460 59 * -1;
#X msg 420 245 send /mixer/channel/set_gain 3 \$1;
#X msg 280 267 send /mixer/channel/set_gain 3 \$1;
#X msg 150 289 send /mixer/channel/set_gain 3 \$1;
#X msg 20 309 send /mixer/channel/set_gain 3 \$1;
#X connect 0 0 5 0;
#X connect 0 0 14 0;
#X connect 0 0 24 0;
#X connect 0 0 34 0;
#X connect 1 0 6 0;
#X connect 1 0 21 0;
#X connect 1 0 25 0;
#X connect 1 0 42 0;
#X connect 2 0 7 0;
#X connect 2 0 16 0;
#X connect 2 0 31 0;
#X connect 2 0 41 0;
#X connect 4 0 46 0;
#X connect 5 0 4 0;
#X connect 6 0 8 0;
#X connect 7 0 8 1;
#X connect 8 0 9 0;
#X connect 9 0 10 0;
#X connect 10 0 11 0;
#X connect 11 0 5 1;
#X connect 13 0 45 0;
#X connect 14 0 13 0;
#X connect 15 0 17 0;
#X connect 16 0 17 1;
#X connect 17 0 18 0;
#X connect 18 0 19 0;
#X connect 19 0 20 0;
#X connect 20 0 14 1;
#X connect 21 0 15 0;
#X connect 23 0 44 0;
#X connect 24 0 23 0;
#X connect 25 0 27 0;
#X connect 26 0 27 1;
#X connect 27 0 28 0;
#X connect 28 0 29 0;
#X connect 29 0 30 0;
#X connect 30 0 24 1;
#X connect 31 0 26 0;
#X connect 33 0 43 0;
#X connect 34 0 33 0;
#X connect 35 0 37 0;
#X connect 36 0 37 1;
#X connect 37 0 38 0;
#X connect 38 0 39 0;
#X connect 39 0 40 0;
#X connect 40 0 34 1;
#X connect 41 0 36 0;
#X connect 42 0 35 0;
#X connect 43 0 32 0;
#X connect 44 0 22 0;
#X connect 45 0 12 0;
#X connect 46 0 3 0;
#X restore 237 173 pd outputLevels3;
#X obj 347 148 unpack f f f;
#N canvas 290 233 662 435 outputLevels4 0;
#X obj 20 17 inlet;
#X obj 60 17 inlet;
#X obj 100 17 inlet;
#X obj 20 331 outlet;
#X obj 23 223 hsl 25 15 -90 0 0 0 empty empty empty -2 -8 0 10 -262144
-1 -1 1754 1;
#X obj 20 200 -;
#X obj 60 82 pow 2;
#X obj 100 82 pow 2;
#X obj 60 107 +;
#X obj 60 129 sqrt;
#X obj 63 151 hsl 25 15 0 1 0 0 empty empty empty -2 -8 0 10 -262144
-1 -1 158 1;
#X obj 60 172 * 90;
#X obj 150 331 outlet;
#X obj 153 223 hsl 25 15 -90 0 0 0 empty empty empty -2 -8 0 10 -262144
-1 -1 1912 1;
#X obj 150 200 -;
#X obj 190 82 pow 2;
#X obj 230 82 pow 2;
#X obj 190 107 +;
#X obj 190 129 sqrt;
#X obj 193 151 hsl 25 15 0 1 0 0 empty empty empty -2 -8 0 10 -262144
-1 -1 0 1;
#X obj 190 172 * 90;
#X obj 190 59 * -1;
#X obj 280 331 outlet;
#X obj 283 223 hsl 25 15 -90 0 0 0 empty empty empty -2 -8 0 10 -262144
-1 -1 0 1;
#X obj 280 200 -;
#X obj 320 82 pow 2;
#X obj 360 82 pow 2;
#X obj 320 107 +;
#X obj 320 129 sqrt;
#X obj 323 151 hsl 25 15 0 1 0 0 empty empty empty -2 -8 0 10 -262144
-1 -1 2340 1;
#X obj 320 172 * 90;
#X obj 360 59 * -1;
#X obj 420 331 outlet;
#X obj 423 223 hsl 25 15 -90 0 0 0 empty empty empty -2 -8 0 10 -262144
-1 -1 0 1;
#X obj 420 200 -;
#X obj 460 82 pow 2;
#X obj 500 82 pow 2;
#X obj 460 107 +;
#X obj 460 129 sqrt;
#X obj 463 151 hsl 25 15 0 1 0 0 empty empty empty -2 -8 0 10 -262144
-1 -1 2335 1;
#X obj 460 172 * 90;
#X obj 500 59 * -1;
#X obj 460 59 * -1;
#X msg 420 245 send /mixer/channel/set_gain 4 \$1;
#X msg 280 267 send /mixer/channel/set_gain 4 \$1;
#X msg 150 289 send /mixer/channel/set_gain 4 \$1;
#X msg 20 309 send /mixer/channel/set_gain 4 \$1;
#X connect 0 0 5 0;
#X connect 0 0 14 0;
#X connect 0 0 24 0;
#X connect 0 0 34 0;
#X connect 1 0 6 0;
#X connect 1 0 21 0;
#X connect 1 0 25 0;
#X connect 1 0 42 0;
#X connect 2 0 7 0;
#X connect 2 0 16 0;
#X connect 2 0 31 0;
#X connect 2 0 41 0;
#X connect 4 0 46 0;
#X connect 5 0 4 0;
#X connect 6 0 8 0;
#X connect 7 0 8 1;
#X connect 8 0 9 0;
#X connect 9 0 10 0;
#X connect 10 0 11 0;
#X connect 11 0 5 1;
#X connect 13 0 45 0;
#X connect 14 0 13 0;
#X connect 15 0 17 0;
#X connect 16 0 17 1;
#X connect 17 0 18 0;
#X connect 18 0 19 0;
#X connect 19 0 20 0;
#X connect 20 0 14 1;
#X connect 21 0 15 0;
#X connect 23 0 44 0;
#X connect 24 0 23 0;
#X connect 25 0 27 0;
#X connect 26 0 27 1;
#X connect 27 0 28 0;
#X connect 28 0 29 0;
#X connect 29 0 30 0;
#X connect 30 0 24 1;
#X connect 31 0 26 0;
#X connect 33 0 43 0;
#X connect 34 0 33 0;
#X connect 35 0 37 0;
#X connect 36 0 37 1;
#X connect 37 0 38 0;
#X connect 38 0 39 0;
#X connect 39 0 40 0;
#X connect 40 0 34 1;
#X connect 41 0 36 0;
#X connect 42 0 35 0;
#X connect 43 0 32 0;
#X connect 44 0 22 0;
#X connect 45 0 12 0;
#X connect 46 0 3 0;
#X restore 347 173 pd outputLevels4;
#X obj 457 148 unpack f f f;
#N canvas 290 233 662 435 outputLevels5 0;
#X obj 20 17 inlet;
#X obj 60 17 inlet;
#X obj 100 17 inlet;
#X obj 20 331 outlet;
#X obj 23 223 hsl 25 15 -90 0 0 0 empty empty empty -2 -8 0 10 -262144
-1 -1 0 1;
#X obj 20 200 -;
#X obj 60 82 pow 2;
#X obj 100 82 pow 2;
#X obj 60 107 +;
#X obj 60 129 sqrt;
#X obj 63 151 hsl 25 15 0 1 0 0 empty empty empty -2 -8 0 10 -262144
-1 -1 2400 1;
#X obj 60 172 * 90;
#X obj 150 331 outlet;
#X obj 153 223 hsl 25 15 -90 0 0 0 empty empty empty -2 -8 0 10 -262144
-1 -1 0 1;
#X obj 150 200 -;
#X obj 190 82 pow 2;
#X obj 230 82 pow 2;
#X obj 190 107 +;
#X obj 190 129 sqrt;
#X obj 193 151 hsl 25 15 0 1 0 0 empty empty empty -2 -8 0 10 -262144
-1 -1 2400 1;
#X obj 190 172 * 90;
#X obj 190 59 * -1;
#X obj 280 331 outlet;
#X obj 283 223 hsl 25 15 -90 0 0 0 empty empty empty -2 -8 0 10 -262144
-1 -1 2287 1;
#X obj 280 200 -;
#X obj 320 82 pow 2;
#X obj 360 82 pow 2;
#X obj 320 107 +;
#X obj 320 129 sqrt;
#X obj 323 151 hsl 25 15 0 1 0 0 empty empty empty -2 -8 0 10 -262144
-1 -1 113 1;
#X obj 320 172 * 90;
#X obj 360 59 * -1;
#X obj 420 331 outlet;
#X obj 423 223 hsl 25 15 -90 0 0 0 empty empty empty -2 -8 0 10 -262144
-1 -1 2400 1;
#X obj 420 200 -;
#X obj 460 82 pow 2;
#X obj 500 82 pow 2;
#X obj 460 107 +;
#X obj 460 129 sqrt;
#X obj 463 151 hsl 25 15 0 1 0 0 empty empty empty -2 -8 0 10 -262144
-1 -1 0 1;
#X obj 460 172 * 90;
#X obj 500 59 * -1;
#X obj 460 59 * -1;
#X msg 420 245 send /mixer/channel/set_gain 5 \$1;
#X msg 280 267 send /mixer/channel/set_gain 5 \$1;
#X msg 150 289 send /mixer/channel/set_gain 5 \$1;
#X msg 20 309 send /mixer/channel/set_gain 5 \$1;
#X connect 0 0 5 0;
#X connect 0 0 14 0;
#X connect 0 0 24 0;
#X connect 0 0 34 0;
#X connect 1 0 6 0;
#X connect 1 0 21 0;
#X connect 1 0 25 0;
#X connect 1 0 42 0;
#X connect 2 0 7 0;
#X connect 2 0 16 0;
#X connect 2 0 31 0;
#X connect 2 0 41 0;
#X connect 4 0 46 0;
#X connect 5 0 4 0;
#X connect 6 0 8 0;
#X connect 7 0 8 1;
#X connect 8 0 9 0;
#X connect 9 0 10 0;
#X connect 10 0 11 0;
#X connect 11 0 5 1;
#X connect 13 0 45 0;
#X connect 14 0 13 0;
#X connect 15 0 17 0;
#X connect 16 0 17 1;
#X connect 17 0 18 0;
#X connect 18 0 19 0;
#X connect 19 0 20 0;
#X connect 20 0 14 1;
#X connect 21 0 15 0;
#X connect 23 0 44 0;
#X connect 24 0 23 0;
#X connect 25 0 27 0;
#X connect 26 0 27 1;
#X connect 27 0 28 0;
#X connect 28 0 29 0;
#X connect 29 0 30 0;
#X connect 30 0 24 1;
#X connect 31 0 26 0;
#X connect 33 0 43 0;
#X connect 34 0 33 0;
#X connect 35 0 37 0;
#X connect 36 0 37 1;
#X connect 37 0 38 0;
#X connect 38 0 39 0;
#X connect 39 0 40 0;
#X connect 40 0 34 1;
#X connect 41 0 36 0;
#X connect 42 0 35 0;
#X connect 43 0 32 0;
#X connect 44 0 22 0;
#X connect 45 0 12 0;
#X connect 46 0 3 0;
#X restore 457 173 pd outputLevels5;
#X obj 567 148 unpack f f f;
#N canvas 290 233 662 435 outputLevels6 0;
#X obj 20 17 inlet;
#X obj 60 17 inlet;
#X obj 100 17 inlet;
#X obj 20 331 outlet;
#X obj 23 223 hsl 25 15 -90 0 0 0 empty empty empty -2 -8 0 10 -262144
-1 -1 0 1;
#X obj 20 200 -;
#X obj 60 82 pow 2;
#X obj 100 82 pow 2;
#X obj 60 107 +;
#X obj 60 129 sqrt;
#X obj 63 151 hsl 25 15 0 1 0 0 empty empty empty -2 -8 0 10 -262144
-1 -1 2400 1;
#X obj 60 172 * 90;
#X obj 150 331 outlet;
#X obj 153 223 hsl 25 15 -90 0 0 0 empty empty empty -2 -8 0 10 -262144
-1 -1 0 1;
#X obj 150 200 -;
#X obj 190 82 pow 2;
#X obj 230 82 pow 2;
#X obj 190 107 +;
#X obj 190 129 sqrt;
#X obj 193 151 hsl 25 15 0 1 0 0 empty empty empty -2 -8 0 10 -262144
-1 -1 2400 1;
#X obj 190 172 * 90;
#X obj 190 59 * -1;
#X obj 280 331 outlet;
#X obj 283 223 hsl 25 15 -90 0 0 0 empty empty empty -2 -8 0 10 -262144
-1 -1 2168 1;
#X obj 280 200 -;
#X obj 320 82 pow 2;
#X obj 360 82 pow 2;
#X obj 320 107 +;
#X obj 320 129 sqrt;
#X obj 323 151 hsl 25 15 0 1 0 0 empty empty empty -2 -8 0 10 -262144
-1 -1 226 1;
#X obj 320 172 * 90;
#X obj 360 59 * -1;
#X obj 420 331 outlet;
#X obj 423 223 hsl 25 15 -90 0 0 0 empty empty empty -2 -8 0 10 -262144
-1 -1 2394 1;
#X obj 420 200 -;
#X obj 460 82 pow 2;
#X obj 500 82 pow 2;
#X obj 460 107 +;
#X obj 460 129 sqrt;
#X obj 463 151 hsl 25 15 0 1 0 0 empty empty empty -2 -8 0 10 -262144
-1 -1 0 1;
#X obj 460 172 * 90;
#X obj 500 59 * -1;
#X obj 460 59 * -1;
#X msg 20 309 send /mixer/channel/set_gain 6 \$1;
#X msg 150 289 send /mixer/channel/set_gain 6 \$1;
#X msg 280 267 send /mixer/channel/set_gain 6 \$1;
#X msg 420 245 send /mixer/channel/set_gain 6 \$1;
#X connect 0 0 5 0;
#X connect 0 0 14 0;
#X connect 0 0 24 0;
#X connect 0 0 34 0;
#X connect 1 0 6 0;
#X connect 1 0 21 0;
#X connect 1 0 25 0;
#X connect 1 0 42 0;
#X connect 2 0 7 0;
#X connect 2 0 16 0;
#X connect 2 0 31 0;
#X connect 2 0 41 0;
#X connect 4 0 43 0;
#X connect 5 0 4 0;
#X connect 6 0 8 0;
#X connect 7 0 8 1;
#X connect 8 0 9 0;
#X connect 9 0 10 0;
#X connect 10 0 11 0;
#X connect 11 0 5 1;
#X connect 13 0 44 0;
#X connect 14 0 13 0;
#X connect 15 0 17 0;
#X connect 16 0 17 1;
#X connect 17 0 18 0;
#X connect 18 0 19 0;
#X connect 19 0 20 0;
#X connect 20 0 14 1;
#X connect 21 0 15 0;
#X connect 23 0 45 0;
#X connect 24 0 23 0;
#X connect 25 0 27 0;
#X connect 26 0 27 1;
#X connect 27 0 28 0;
#X connect 28 0 29 0;
#X connect 29 0 30 0;
#X connect 30 0 24 1;
#X connect 31 0 26 0;
#X connect 33 0 46 0;
#X connect 34 0 33 0;
#X connect 35 0 37 0;
#X connect 36 0 37 1;
#X connect 37 0 38 0;
#X connect 38 0 39 0;
#X connect 39 0 40 0;
#X connect 40 0 34 1;
#X connect 41 0 36 0;
#X connect 42 0 35 0;
#X connect 43 0 3 0;
#X connect 44 0 12 0;
#X connect 45 0 22 0;
#X connect 46 0 32 0;
#X restore 567 173 pd outputLevels6;
#X obj 17 45 routeOSC /1 /2 /3 /4 /5 /6 /7 /8 /9;
#X obj 677 148 unpack f f f;
#N canvas 290 233 662 435 outputLevels7 0;
#X obj 20 17 inlet;
#X obj 60 17 inlet;
#X obj 100 17 inlet;
#X obj 20 331 outlet;
#X obj 23 223 hsl 25 15 -90 0 0 0 empty empty empty -2 -8 0 10 -262144
-1 -1 2197 1;
#X obj 20 200 -;
#X obj 60 82 pow 2;
#X obj 100 82 pow 2;
#X obj 60 107 +;
#X obj 60 129 sqrt;
#X obj 63 151 hsl 25 15 0 1 0 0 empty empty empty -2 -8 0 10 -262144
-1 -1 203 1;
#X obj 60 172 * 90;
#X obj 150 331 outlet;
#X obj 153 223 hsl 25 15 -90 0 0 0 empty empty empty -2 -8 0 10 -262144
-1 -1 2400 1;
#X obj 150 200 -;
#X obj 190 82 pow 2;
#X obj 230 82 pow 2;
#X obj 190 107 +;
#X obj 190 129 sqrt;
#X obj 193 151 hsl 25 15 0 1 0 0 empty empty empty -2 -8 0 10 -262144
-1 -1 0 1;
#X obj 190 172 * 90;
#X obj 190 59 * -1;
#X obj 280 331 outlet;
#X obj 283 223 hsl 25 15 -90 0 0 0 empty empty empty -2 -8 0 10 -262144
-1 -1 1130 1;
#X obj 280 200 -;
#X obj 320 82 pow 2;
#X obj 360 82 pow 2;
#X obj 320 107 +;
#X obj 320 129 sqrt;
#X obj 323 151 hsl 25 15 0 1 0 0 empty empty empty -2 -8 0 10 -262144
-1 -1 1270 1;
#X obj 320 172 * 90;
#X obj 360 59 * -1;
#X obj 420 331 outlet;
#X obj 423 223 hsl 25 15 -90 0 0 0 empty empty empty -2 -8 0 10 -262144
-1 -1 1146 1;
#X obj 420 200 -;
#X obj 460 82 pow 2;
#X obj 500 82 pow 2;
#X obj 460 107 +;
#X obj 460 129 sqrt;
#X obj 463 151 hsl 25 15 0 1 0 0 empty empty empty -2 -8 0 10 -262144
-1 -1 1254 1;
#X obj 460 172 * 90;
#X obj 500 59 * -1;
#X obj 460 59 * -1;
#X msg 20 309 send /mixer/channel/set_gain 7 \$1;
#X msg 150 289 send /mixer/channel/set_gain 8 \$1;
#X msg 280 267 send /mixer/channel/set_gain 7 \$1;
#X msg 420 245 send /mixer/channel/set_gain 8 \$1;
#X connect 0 0 5 0;
#X connect 0 0 14 0;
#X connect 0 0 24 0;
#X connect 0 0 34 0;
#X connect 1 0 6 0;
#X connect 1 0 21 0;
#X connect 1 0 25 0;
#X connect 1 0 42 0;
#X connect 2 0 7 0;
#X connect 2 0 16 0;
#X connect 2 0 31 0;
#X connect 2 0 41 0;
#X connect 4 0 43 0;
#X connect 5 0 4 0;
#X connect 6 0 8 0;
#X connect 7 0 8 1;
#X connect 8 0 9 0;
#X connect 9 0 10 0;
#X connect 10 0 11 0;
#X connect 11 0 5 1;
#X connect 13 0 44 0;
#X connect 14 0 13 0;
#X connect 15 0 17 0;
#X connect 16 0 17 1;
#X connect 17 0 18 0;
#X connect 18 0 19 0;
#X connect 19 0 20 0;
#X connect 20 0 14 1;
#X connect 21 0 15 0;
#X connect 23 0 45 0;
#X connect 24 0 23 0;
#X connect 25 0 27 0;
#X connect 26 0 27 1;
#X connect 27 0 28 0;
#X connect 28 0 29 0;
#X connect 29 0 30 0;
#X connect 30 0 24 1;
#X connect 31 0 26 0;
#X connect 33 0 46 0;
#X connect 34 0 33 0;
#X connect 35 0 37 0;
#X connect 36 0 37 1;
#X connect 37 0 38 0;
#X connect 38 0 39 0;
#X connect 39 0 40 0;
#X connect 40 0 34 1;
#X connect 41 0 36 0;
#X connect 42 0 35 0;
#X connect 43 0 3 0;
#X connect 44 0 12 0;
#X connect 45 0 22 0;
#X connect 46 0 32 0;
#X restore 677 173 pd outputLevels7;
#X obj 787 148 unpack f f f;
#N canvas 290 233 662 435 outputLevels8 0;
#X obj 20 17 inlet;
#X obj 60 17 inlet;
#X obj 100 17 inlet;
#X obj 20 331 outlet;
#X obj 23 223 hsl 25 15 -90 0 0 0 empty empty empty -2 -8 0 10 -262144
-1 -1 2129 1;
#X obj 20 200 -;
#X obj 60 82 pow 2;
#X obj 100 82 pow 2;
#X obj 60 107 +;
#X obj 60 129 sqrt;
#X obj 63 151 hsl 25 15 0 1 0 0 empty empty empty -2 -8 0 10 -262144
-1 -1 271 1;
#X obj 60 172 * 90;
#X obj 150 331 outlet;
#X obj 153 223 hsl 25 15 -90 0 0 0 empty empty empty -2 -8 0 10 -262144
-1 -1 2400 1;
#X obj 150 200 -;
#X obj 190 82 pow 2;
#X obj 230 82 pow 2;
#X obj 190 107 +;
#X obj 190 129 sqrt;
#X obj 193 151 hsl 25 15 0 1 0 0 empty empty empty -2 -8 0 10 -262144
-1 -1 0 1;
#X obj 190 172 * 90;
#X obj 190 59 * -1;
#X obj 280 331 outlet;
#X obj 283 223 hsl 25 15 -90 0 0 0 empty empty empty -2 -8 0 10 -262144
-1 -1 1117 1;
#X obj 280 200 -;
#X obj 320 82 pow 2;
#X obj 360 82 pow 2;
#X obj 320 107 +;
#X obj 320 129 sqrt;
#X obj 323 151 hsl 25 15 0 1 0 0 empty empty empty -2 -8 0 10 -262144
-1 -1 1283 1;
#X obj 320 172 * 90;
#X obj 360 59 * -1;
#X obj 420 331 outlet;
#X obj 423 223 hsl 25 15 -90 0 0 0 empty empty empty -2 -8 0 10 -262144
-1 -1 1146 1;
#X obj 420 200 -;
#X obj 460 82 pow 2;
#X obj 500 82 pow 2;
#X obj 460 107 +;
#X obj 460 129 sqrt;
#X obj 463 151 hsl 25 15 0 1 0 0 empty empty empty -2 -8 0 10 -262144
-1 -1 1254 1;
#X obj 460 172 * 90;
#X obj 500 59 * -1;
#X obj 460 59 * -1;
#X msg 20 309 send /mixer/channel/set_gain 9 \$1;
#X msg 150 289 send /mixer/channel/set_gain 10 \$1;
#X msg 280 267 send /mixer/channel/set_gain 9 \$1;
#X msg 420 245 send /mixer/channel/set_gain 10 \$1;
#X connect 0 0 5 0;
#X connect 0 0 14 0;
#X connect 0 0 24 0;
#X connect 0 0 34 0;
#X connect 1 0 6 0;
#X connect 1 0 21 0;
#X connect 1 0 25 0;
#X connect 1 0 42 0;
#X connect 2 0 7 0;
#X connect 2 0 16 0;
#X connect 2 0 31 0;
#X connect 2 0 41 0;
#X connect 4 0 43 0;
#X connect 5 0 4 0;
#X connect 6 0 8 0;
#X connect 7 0 8 1;
#X connect 8 0 9 0;
#X connect 9 0 10 0;
#X connect 10 0 11 0;
#X connect 11 0 5 1;
#X connect 13 0 44 0;
#X connect 14 0 13 0;
#X connect 15 0 17 0;
#X connect 16 0 17 1;
#X connect 17 0 18 0;
#X connect 18 0 19 0;
#X connect 19 0 20 0;
#X connect 20 0 14 1;
#X connect 21 0 15 0;
#X connect 23 0 45 0;
#X connect 24 0 23 0;
#X connect 25 0 27 0;
#X connect 26 0 27 1;
#X connect 27 0 28 0;
#X connect 28 0 29 0;
#X connect 29 0 30 0;
#X connect 30 0 24 1;
#X connect 31 0 26 0;
#X connect 33 0 46 0;
#X connect 34 0 33 0;
#X connect 35 0 37 0;
#X connect 36 0 37 1;
#X connect 37 0 38 0;
#X connect 38 0 39 0;
#X connect 39 0 40 0;
#X connect 40 0 34 1;
#X connect 41 0 36 0;
#X connect 42 0 35 0;
#X connect 43 0 3 0;
#X connect 44 0 12 0;
#X connect 45 0 22 0;
#X connect 46 0 32 0;
#X restore 787 173 pd outputLevels8;
#X connect 0 0 18 0;
#X connect 1 0 7 0;
#X connect 1 1 7 1;
#X connect 1 2 7 2;
#X connect 7 0 3 0;
#X connect 7 1 4 0;
#X connect 7 2 5 0;
#X connect 7 3 6 0;
#X connect 8 0 9 0;
#X connect 8 1 9 1;
#X connect 8 2 9 2;
#X connect 9 0 3 0;
#X connect 9 1 4 0;
#X connect 9 2 5 0;
#X connect 9 3 6 0;
#X connect 10 0 11 0;
#X connect 10 1 11 1;
#X connect 10 2 11 2;
#X connect 11 0 3 0;
#X connect 11 1 4 0;
#X connect 11 2 5 0;
#X connect 11 3 6 0;
#X connect 12 0 13 0;
#X connect 12 1 13 1;
#X connect 12 2 13 2;
#X connect 13 0 3 0;
#X connect 13 1 4 0;
#X connect 13 2 5 0;
#X connect 13 3 6 0;
#X connect 14 0 15 0;
#X connect 14 1 15 1;
#X connect 14 2 15 2;
#X connect 15 0 3 0;
#X connect 15 1 4 0;
#X connect 15 2 5 0;
#X connect 15 3 6 0;
#X connect 16 0 17 0;
#X connect 16 1 17 1;
#X connect 16 2 17 2;
#X connect 17 0 3 0;
#X connect 17 1 4 0;
#X connect 17 2 5 0;
#X connect 17 3 6 0;
#X connect 18 0 1 0;
#X connect 18 1 8 0;
#X connect 18 2 10 0;
#X connect 18 3 12 0;
#X connect 18 4 14 0;
#X connect 18 5 16 0;
#X connect 18 6 19 0;
#X connect 18 7 21 0;
#X connect 19 0 20 0;
#X connect 19 1 20 1;
#X connect 19 2 20 2;
#X connect 20 0 3 0;
#X connect 20 1 4 0;
#X connect 20 2 5 0;
#X connect 20 3 6 0;
#X connect 21 0 22 0;
#X connect 21 1 22 1;
#X connect 21 2 22 2;
#X connect 22 0 3 0;
#X connect 22 1 4 0;
#X connect 22 2 5 0;
#X connect 22 3 6 0;
#X restore 93 270 pd quadMixer;
#X obj 168 125 packOSC;
#N canvas 492 58 460 622 virtualQuadMixer 0;
#X obj 80 324 hsl 201 25 -1 1 0 0 empty empty empty -2 -8 0 10 -258113
-1 -1 0 1;
#X obj 42 109 vsl 25 201 -1 1 0 0 empty empty empty 0 -9 0 10 -258113
-1 -1 0 1;
#X floatatom 47 328 3 1 6 0 - - -;
#X msg 47 47 1;
#X obj 83 283 bng 25 250 50 0 empty empty empty 17 7 0 10 -262144 -1
-1;
#X obj 83 198 bng 25 250 50 0 empty empty empty 17 7 0 10 -262144 -1
-1;
#X obj 83 113 bng 25 250 50 0 empty empty empty 17 7 0 10 -262144 -1
-1;
#X obj 168 283 bng 25 250 50 0 empty empty empty 17 7 0 10 -262144
-1 -1;
#X obj 168 198 bng 25 250 50 0 empty empty empty 17 7 0 10 -262144
-1 -1;
#X obj 168 113 bng 25 250 50 0 empty empty empty 17 7 0 10 -262144
-1 -1;
#X obj 253 283 bng 25 250 50 0 empty empty empty 17 7 0 10 -262144
-1 -1;
#X obj 253 198 bng 25 250 50 0 empty empty empty 17 7 0 10 -262144
-1 -1;
#X obj 253 113 bng 25 250 50 0 empty empty empty 17 7 0 10 -262144
-1 -1;
#X msg 78 47 0;
#X msg 110 47 -1;
#X msg 167 467 1;
#X msg 198 467 0;
#X msg 230 467 -1;
#X obj 293 142 vsl 40 170 -90 0 0 0 empty empty empty 0 -9 0 10 -262144
-1 -1 0 1;
#X obj 19 553 outlet;
#X obj 293 66 bng 15 250 50 0 empty empty empty 17 7 0 10 -262144 -1
-1;
#X obj 19 499 pack f f f;
#X msg 19 529 send /quadMixer/1 \$1 \$2 \$3;
#X obj 302 320 bng 25 250 50 0 empty empty empty 17 7 0 10 -262144
-1 -1;
#X obj 302 110 bng 25 250 50 0 empty empty empty 17 7 0 10 -262144
-1 -1;
#X msg 294 85 -90;
#X msg 294 368 0;
#X obj 80 314 hsl 201 8 -1 1 0 0 empty empty empty -2 -8 0 10 -262144
-1 -1 0 1;
#X obj 69 109 vsl 8 201 -1 1 0 0 empty empty empty 0 -9 0 10 -262144
-1 -1 0 1;
#X obj 237 525 unpack f f f;
#X obj 236 19 tgl 15 0 empty empty empty 17 7 0 10 -262144 -1 -1 0
-0.38;
#X obj 236 0 bng 15 250 50 0 empty empty empty 17 7 0 10 -262144 -1
-1;
#X obj 236 38 select 0;
#X connect 0 0 21 1;
#X connect 0 0 20 0;
#X connect 1 0 21 2;
#X connect 1 0 20 0;
#X connect 3 0 21 2;
#X connect 3 0 31 0;
#X connect 4 0 14 0;
#X connect 4 0 17 0;
#X connect 5 0 13 0;
#X connect 5 0 17 0;
#X connect 6 0 17 0;
#X connect 6 0 3 0;
#X connect 7 0 14 0;
#X connect 7 0 16 0;
#X connect 8 0 13 0;
#X connect 8 0 16 0;
#X connect 9 0 3 0;
#X connect 9 0 16 0;
#X connect 10 0 14 0;
#X connect 10 0 15 0;
#X connect 11 0 13 0;
#X connect 11 0 15 0;
#X connect 12 0 3 0;
#X connect 12 0 15 0;
#X connect 13 0 21 2;
#X connect 13 0 31 0;
#X connect 14 0 21 2;
#X connect 14 0 31 0;
#X connect 15 0 21 1;
#X connect 15 0 31 0;
#X connect 16 0 21 1;
#X connect 16 0 31 0;
#X connect 17 0 21 1;
#X connect 17 0 31 0;
#X connect 18 0 21 0;
#X connect 20 0 18 0;
#X connect 21 0 22 0;
#X connect 21 0 29 0;
#X connect 22 0 19 0;
#X connect 23 0 25 0;
#X connect 24 0 26 0;
#X connect 25 0 18 0;
#X connect 26 0 18 0;
#X connect 29 1 27 0;
#X connect 29 2 28 0;
#X connect 30 0 32 0;
#X connect 31 0 30 0;
#X connect 32 0 20 0;
#X coords 0 -1 1 1 295 245 2 40 105;
#X restore 522 -3 pd virtualQuadMixer;
#N canvas 11 50 987 666 quadMixCTL 0;
#X obj 16 6 inlet;
#X obj 349 580 pack f f f;
#X msg 349 604 send /quadMixer/1 \$1 \$2 \$3;
#X obj 392 530 pack f f f;
#X obj 436 480 pack f f f;
#X obj 479 430 pack f f f;
#X obj 523 380 pack f f f;
#X obj 566 330 pack f f f;
#X msg 392 554 send /quadMixer/2 \$1 \$2 \$3;
#X msg 436 504 send /quadMixer/3 \$1 \$2 \$3;
#X msg 479 454 send /quadMixer/4 \$1 \$2 \$3;
#X msg 523 404 send /quadMixer/5 \$1 \$2 \$3;
#X msg 566 354 send /quadMixer/6 \$1 \$2 \$3;
#X obj 24 645 outlet;
#X obj 16 362 quadMixRouteBox;
#X obj 53 332 quadMixRouteBox;
#X obj 90 302 quadMixRouteBox;
#X obj 127 272 quadMixRouteBox;
#X obj 164 242 quadMixRouteBox;
#X obj 201 212 quadMixRouteBox;
#X obj 16 68 routeOSC /multi1 /multi2 /multi3 /multi4 /multi5 /multi6
/multi7 /multi8 /multi9;
#X obj 419 68 routeOSC /vol1 /vol2 /vol3 /vol4 /vol5 /vol6 /vol7 /vol8
/vol9;
#X obj 599 280 pack f f f;
#X obj 643 230 pack f f f;
#X obj 686 180 pack f f f;
#X obj 238 182 quadMixRouteBox;
#X obj 275 152 quadMixRouteBox;
#X obj 312 122 quadMixRouteBox;
#X msg 599 304 send /quadMixer/7 \$1 \$2 \$3;
#X msg 643 254 send /quadMixer/8 \$1 \$2 \$3;
#X msg 686 204 send /quadMixer/9 \$1 \$2 \$3;
#N canvas 75 75 891 330 fxXX-\$0 0;
#X obj -9 29 inlet;
#X obj -9 245 outlet;
#X msg -9 218 send /mixer/channel/set_gain 1 \$1;
#X obj -9 62 routeOSC /fx1a /fx2a /fx3a /fx4a /fx5a /fx6a;
#X obj 421 245 outlet;
#X msg 421 218 send /mixer/channel/set_gain 1 \$1;
#X obj 682 87 outlet;
#X obj 421 62 routeOSC /fx1b /fx2b /fx3b /fx4b /fx5b /fx6b;
#X msg 34 198 send /mixer/channel/set_gain 2 \$1;
#X msg 78 178 send /mixer/channel/set_gain 3 \$1;
#X msg 121 158 send /mixer/channel/set_gain 4 \$1;
#X msg 165 138 send /mixer/channel/set_gain 5 \$1;
#X msg 208 118 send /mixer/channel/set_gain 6 \$1;
#X msg 464 198 send /mixer/channel/set_gain 2 \$1;
#X msg 508 178 send /mixer/channel/set_gain 3 \$1;
#X msg 551 158 send /mixer/channel/set_gain 4 \$1;
#X msg 595 138 send /mixer/channel/set_gain 5 \$1;
#X msg 638 118 send /mixer/channel/set_gain 6 \$1;
#X connect 0 0 3 0;
#X connect 2 0 1 0;
#X connect 3 0 2 0;
#X connect 3 1 8 0;
#X connect 3 2 9 0;
#X connect 3 3 10 0;
#X connect 3 4 11 0;
#X connect 3 5 12 0;
#X connect 3 6 7 0;
#X connect 5 0 4 0;
#X connect 7 0 5 0;
#X connect 7 1 13 0;
#X connect 7 2 14 0;
#X connect 7 3 15 0;
#X connect 7 4 16 0;
#X connect 7 5 17 0;
#X connect 7 6 6 0;
#X connect 8 0 1 0;
#X connect 9 0 1 0;
#X connect 10 0 1 0;
#X connect 11 0 1 0;
#X connect 12 0 1 0;
#X connect 13 0 4 0;
#X connect 14 0 4 0;
#X connect 15 0 4 0;
#X connect 16 0 4 0;
#X connect 17 0 4 0;
#X restore 752 102 pd fxXX-\$0;
#X obj 752 163 outlet;
#X obj 780 143 outlet;
#N canvas 0 53 1016 442 quadMixSelWaitRec 0;
#X obj 12 10 inlet;
#X obj 12 34 routeOSC /l1sel /l2sel /l3sel /l4sel /l5sel /l6sel;
#X msg 90 360 send /set selected_loop_num \$1;
#X obj 90 413 s slOSCout;
#X obj 12 308 select 0;
#X msg 12 329 0;
#X obj 61 258 select 0;
#X msg 61 279 1;
#X obj 111 208 select 0;
#X obj 160 158 select 0;
#X msg 111 229 2;
#X msg 160 179 3;
#X obj 210 108 select 0;
#X obj 259 58 select 0;
#X msg 210 129 4;
#X msg 259 79 5;
#X obj 322 34 routeOSC /l1rec /l2rec /l3rec /l4rec /l5rec /l6rec;
#X obj 322 308 select 0;
#X msg 322 329 0;
#X obj 371 258 select 0;
#X msg 371 279 1;
#X obj 421 208 select 0;
#X obj 470 158 select 0;
#X msg 421 229 2;
#X msg 470 179 3;
#X obj 520 108 select 0;
#X obj 569 58 select 0;
#X msg 520 129 4;
#X msg 569 79 5;
#X obj 965 58 outlet;
#X obj 632 308 select 0;
#X msg 632 329 0;
#X obj 687 258 select 0;
#X msg 687 279 1;
#X obj 743 208 select 0;
#X obj 798 158 select 0;
#X msg 743 229 2;
#X msg 798 179 3;
#X obj 854 108 select 0;
#X obj 909 58 select 0;
#X msg 854 129 4;
#X msg 909 79 5;
#X obj 632 34 routeOSC /l1wait /l2wait /l3wait /l4wait /l5wait /l6wait
;
#X msg 710 360 send /sl/\$1/hit overdub;
#X msg 400 360 send /sl/\$1/hit record_or_overdub;
#X connect 0 0 1 0;
#X connect 1 0 4 0;
#X connect 1 1 6 0;
#X connect 1 2 8 0;
#X connect 1 3 9 0;
#X connect 1 4 12 0;
#X connect 1 5 13 0;
#X connect 1 6 16 0;
#X connect 2 0 3 0;
#X connect 4 0 5 0;
#X connect 5 0 2 0;
#X connect 6 0 7 0;
#X connect 7 0 2 0;
#X connect 8 0 10 0;
#X connect 9 0 11 0;
#X connect 10 0 2 0;
#X connect 11 0 2 0;
#X connect 12 0 14 0;
#X connect 13 0 15 0;
#X connect 14 0 2 0;
#X connect 15 0 2 0;
#X connect 16 0 17 0;
#X connect 16 1 19 0;
#X connect 16 2 21 0;
#X connect 16 3 22 0;
#X connect 16 4 25 0;
#X connect 16 5 26 0;
#X connect 16 6 42 0;
#X connect 17 0 18 0;
#X connect 18 0 44 0;
#X connect 19 0 20 0;
#X connect 20 0 44 0;
#X connect 21 0 23 0;
#X connect 22 0 24 0;
#X connect 23 0 44 0;
#X connect 24 0 44 0;
#X connect 25 0 27 0;
#X connect 26 0 28 0;
#X connect 27 0 44 0;
#X connect 28 0 44 0;
#X connect 30 0 31 0;
#X connect 31 0 43 0;
#X connect 32 0 33 0;
#X connect 33 0 43 0;
#X connect 34 0 36 0;
#X connect 35 0 37 0;
#X connect 36 0 43 0;
#X connect 37 0 43 0;
#X connect 38 0 40 0;
#X connect 39 0 41 0;
#X connect 40 0 43 0;
#X connect 41 0 43 0;
#X connect 42 0 30 0;
#X connect 42 1 32 0;
#X connect 42 2 34 0;
#X connect 42 3 35 0;
#X connect 42 4 38 0;
#X connect 42 5 39 0;
#X connect 42 6 29 0;
#X connect 43 0 3 0;
#X connect 44 0 3 0;
#X restore 809 124 pd quadMixSelWaitRec;
#N canvas 207 344 628 325 quadMixBar 0;
#X obj 9 11 inlet;
#X obj 9 58 select 0;
#X msg 9 243 send /sl/0/hit undo_all;
#X msg 19 223 send /sl/1/hit undo_all;
#X msg 29 203 send /sl/2/hit undo_all;
#X msg 39 183 send /sl/3/hit undo_all;
#X msg 49 163 send /sl/4/hit undo_all;
#X msg 59 143 send /sl/5/hit undo_all;
#X obj 99 301 s slOSCout;
#X obj 9 35 routeOSC /globalUndoAll /currentUndo /currentRedo;
#X obj 106 98 select 0;
#X obj 203 77 select 0;
#X msg 106 120 send /sl/-3/hit undo;
#X msg 203 99 send /sl/-3/hit redo;
#N canvas 202 236 450 300 routeMuteOSC 0;
#X obj 7 6 inlet;
#X obj 7 274 outlet;
#X obj 340 60 outlet;
#X obj 7 34 routeOSC /l1mute /l2mute /l3mute /l4mute /l5mute /l6mute
;
#X msg 7 243 send /sl/\$1/mute_on;
#X msg 132 243 send /sl/\$1/mute_off;
#X obj 7 60 select 1;
#X msg 34 84 0;
#X msg 7 84 0;
#X obj 62 60 select 1;
#X msg 62 84 1;
#X msg 89 84 1;
#X obj 118 60 select 1;
#X msg 118 84 2;
#X msg 145 84 2;
#X obj 173 60 select 1;
#X msg 173 84 3;
#X msg 200 84 3;
#X obj 229 60 select 1;
#X msg 229 84 4;
#X msg 256 84 4;
#X obj 284 60 select 1;
#X msg 284 84 5;
#X msg 311 84 5;
#X connect 0 0 3 0;
#X connect 3 0 6 0;
#X connect 3 1 9 0;
#X connect 3 2 12 0;
#X connect 3 3 15 0;
#X connect 3 4 18 0;
#X connect 3 5 21 0;
#X connect 3 6 2 0;
#X connect 4 0 1 0;
#X connect 5 0 1 0;
#X connect 6 0 8 0;
#X connect 6 1 7 0;
#X connect 7 0 5 0;
#X connect 8 0 4 0;
#X connect 9 0 10 0;
#X connect 9 1 11 0;
#X connect 10 0 4 0;
#X connect 11 0 5 0;
#X connect 12 0 13 0;
#X connect 12 1 14 0;
#X connect 13 0 4 0;
#X connect 14 0 5 0;
#X connect 15 0 16 0;
#X connect 15 1 17 0;
#X connect 16 0 4 0;
#X connect 17 0 5 0;
#X connect 18 0 19 0;
#X connect 18 1 20 0;
#X connect 19 0 4 0;
#X connect 20 0 5 0;
#X connect 21 0 22 0;
#X connect 21 1 23 0;
#X connect 22 0 4 0;
#X connect 23 0 5 0;
#X restore 312 35 pd routeMuteOSC;
#X obj 492 62 print;
#N canvas 202 236 450 300 routeRevOSC 0;
#X obj 7 6 inlet;
#X obj 7 274 outlet;
#X obj 340 60 outlet;
#X obj 7 60 select 1;
#X msg 34 84 0;
#X msg 7 84 0;
#X obj 62 60 select 1;
#X msg 62 84 1;
#X msg 89 84 1;
#X obj 118 60 select 1;
#X msg 118 84 2;
#X msg 145 84 2;
#X obj 173 60 select 1;
#X msg 173 84 3;
#X msg 200 84 3;
#X obj 229 60 select 1;
#X msg 229 84 4;
#X msg 256 84 4;
#X obj 284 60 select 1;
#X msg 284 84 5;
#X msg 311 84 5;
#X obj 7 34 routeOSC /l1rev /l2rev /l3rev /l4rev /l5rev /l6rev;
#X msg 7 243 send /sl/\$1/down reverse;
#X msg 192 243 send /sl/\$1/up reverse;
#X connect 0 0 21 0;
#X connect 3 0 5 0;
#X connect 3 1 4 0;
#X connect 4 0 23 0;
#X connect 5 0 22 0;
#X connect 6 0 7 0;
#X connect 6 1 8 0;
#X connect 7 0 22 0;
#X connect 8 0 23 0;
#X connect 9 0 10 0;
#X connect 9 1 11 0;
#X connect 10 0 22 0;
#X connect 11 0 23 0;
#X connect 12 0 13 0;
#X connect 12 1 14 0;
#X connect 13 0 22 0;
#X connect 14 0 23 0;
#X connect 15 0 16 0;
#X connect 15 1 17 0;
#X connect 16 0 22 0;
#X connect 17 0 23 0;
#X connect 18 0 19 0;
#X connect 18 1 20 0;
#X connect 19 0 22 0;
#X connect 20 0 23 0;
#X connect 21 0 3 0;
#X connect 21 1 6 0;
#X connect 21 2 9 0;
#X connect 21 3 12 0;
#X connect 21 4 15 0;
#X connect 21 5 18 0;
#X connect 21 6 2 0;
#X connect 22 0 1 0;
#X connect 23 0 1 0;
#X restore 411 35 pd routeRevOSC;
#X connect 0 0 9 0;
#X connect 1 0 2 0;
#X connect 1 0 3 0;
#X connect 1 0 4 0;
#X connect 1 0 5 0;
#X connect 1 0 6 0;
#X connect 1 0 7 0;
#X connect 2 0 8 0;
#X connect 3 0 8 0;
#X connect 4 0 8 0;
#X connect 5 0 8 0;
#X connect 6 0 8 0;
#X connect 7 0 8 0;
#X connect 9 0 1 0;
#X connect 9 1 10 0;
#X connect 9 2 11 0;
#X connect 9 3 14 0;
#X connect 10 0 12 0;
#X connect 11 0 13 0;
#X connect 12 0 8 0;
#X connect 13 0 8 0;
#X connect 14 0 8 0;
#X connect 14 1 16 0;
#X connect 16 0 8 0;
#X connect 16 1 15 0;
#X restore 851 147 pd quadMixBar;
#X connect 0 0 20 0;
#X connect 1 0 2 0;
#X connect 2 0 13 0;
#X connect 3 0 8 0;
#X connect 4 0 9 0;
#X connect 5 0 10 0;
#X connect 6 0 11 0;
#X connect 7 0 12 0;
#X connect 8 0 13 0;
#X connect 9 0 13 0;
#X connect 10 0 13 0;
#X connect 11 0 13 0;
#X connect 12 0 13 0;
#X connect 14 0 1 0;
#X connect 14 1 1 1;
#X connect 14 2 1 2;
#X connect 15 0 3 0;
#X connect 15 1 3 1;
#X connect 15 2 3 2;
#X connect 16 0 4 0;
#X connect 16 1 4 1;
#X connect 16 2 4 2;
#X connect 17 0 5 0;
#X connect 17 1 5 1;
#X connect 17 2 5 2;
#X connect 18 0 6 0;
#X connect 18 1 6 1;
#X connect 18 2 6 2;
#X connect 19 0 7 0;
#X connect 19 1 7 1;
#X connect 19 2 7 2;
#X connect 20 0 14 0;
#X connect 20 1 15 0;
#X connect 20 2 16 0;
#X connect 20 3 17 0;
#X connect 20 4 18 0;
#X connect 20 5 19 0;
#X connect 20 6 25 0;
#X connect 20 7 26 0;
#X connect 20 8 27 0;
#X connect 20 9 21 0;
#X connect 21 0 1 0;
#X connect 21 1 3 0;
#X connect 21 2 4 0;
#X connect 21 3 5 0;
#X connect 21 4 6 0;
#X connect 21 5 7 0;
#X connect 21 6 22 0;
#X connect 21 7 23 0;
#X connect 21 8 24 0;
#X connect 21 9 31 0;
#X connect 22 0 28 0;
#X connect 23 0 29 0;
#X connect 24 0 30 0;
#X connect 25 0 22 0;
#X connect 25 1 22 1;
#X connect 25 2 22 2;
#X connect 26 0 23 0;
#X connect 26 1 23 1;
#X connect 26 2 23 2;
#X connect 27 0 24 0;
#X connect 27 1 24 1;
#X connect 27 2 24 2;
#X connect 28 0 13 0;
#X connect 29 0 13 0;
#X connect 30 0 13 0;
#X connect 31 0 32 0;
#X connect 31 1 33 0;
#X connect 31 2 34 0;
#X connect 34 0 35 0;
#X restore 168 104 pd quadMixCTL;
#N canvas 86 105 381 270 OSCout 0;
#X obj 131 30 inlet;
#X obj 131 55 packOSC;
#X floatatom 170 78 5 0 0 0 - - -;
#X text 204 79 bundle depth;
#X obj 48 151 bng 15 250 50 0 empty empty connect 20 7 0 8 -258113
-1 -1;
#X obj 47 120 tgl 15 0 empty empty connected 20 7 0 8 -4034 -45076
-1 1 1;
#X obj 48 169 bng 15 250 50 0 empty empty disconnect 20 7 0 8 -258113
-1 -1;
#X obj 131 220 udpsend;
#X msg 225 184 disconnect;
#X msg 225 166 connect 127.0.0.1 9960;
#X text 44 100 miniKPsends OSC;
#X connect 0 0 1 0;
#X connect 1 0 7 0;
#X connect 1 1 2 0;
#X connect 4 0 9 0;
#X connect 6 0 8 0;
#X connect 7 0 5 0;
#X connect 8 0 7 0;
#X connect 9 0 7 0;
#X coords 0 -1 1 1 125 90 2 40 100;
#X restore 220 147 pd OSCout;
#N canvas 136 337 381 270 OSCout 0;
#X obj 131 30 inlet;
#X obj 131 55 packOSC;
#X floatatom 170 78 5 0 0 0 - - -;
#X text 204 79 bundle depth;
#X obj 48 151 bng 15 250 50 0 empty empty connect 20 7 0 8 -258113
-1 -1;
#X obj 47 120 tgl 15 0 empty empty connected 20 7 0 8 -4034 -45076
-1 1 1;
#X obj 48 169 bng 15 250 50 0 empty empty disconnect 20 7 0 8 -258113
-1 -1;
#X obj 131 220 udpsend;
#X msg 225 184 disconnect;
#X text 44 100 KPsends OSC;
#X msg 225 166 connect 127.0.0.1 9962;
#X connect 0 0 1 0;
#X connect 1 0 7 0;
#X connect 1 1 2 0;
#X connect 4 0 10 0;
#X connect 6 0 8 0;
#X connect 7 0 5 0;
#X connect 8 0 7 0;
#X connect 10 0 7 0;
#X coords 0 -1 1 1 125 90 2 40 100;
#X restore 360 147 pd OSCout;
#X obj 18 62 routeOSC /mixer /quadMixer /quadMixCTL;
#X obj 468 -3 packOSC;
#N canvas 486 26 530 501 quadMixButtonsSL 0;
#X obj 351 10 nbx 3 14 0 512 0 0 empty SLselected_loop_num selected_loop
33 7 0 8 -262144 -1 -1 0 256;
#N canvas 136 337 430 270 OSCout 0;
#X obj 131 30 inlet;
#X obj 131 55 packOSC;
#X floatatom 170 78 5 0 0 0 - - -;
#X text 204 79 bundle depth;
#X obj 48 151 bng 15 250 50 0 empty empty connect 20 7 0 8 -258113
-1 -1;
#X obj 47 120 tgl 15 0 empty empty connected 20 7 0 8 -4034 -45076
-1 1 1;
#X obj 48 169 bng 15 250 50 0 empty empty disconnect 20 7 0 8 -258113
-1 -1;
#X obj 131 220 udpsend;
#X msg 225 184 disconnect;
#X text 44 100 TabletSend OSC;
#X msg 225 166 connect 192.168.75.113 8080;
#X connect 0 0 1 0;
#X connect 1 0 7 0;
#X connect 1 1 2 0;
#X connect 4 0 10 0;
#X connect 6 0 8 0;
#X connect 7 0 5 0;
#X connect 8 0 7 0;
#X connect 10 0 7 0;
#X coords 0 -1 1 1 125 90 2 40 100;
#X restore 351 216 pd OSCout;
#X obj 41 464 s slOSCout;
#X obj 41 442 ../slOSC/slOSCsender2;
#X obj 9 12 r localOSCin;
#X obj 9 35 routeOSC /quadMixSL;
#X msg 73 315 4 /sl/0/register_auto_update state 100 /quadMixSL/state0
;
#X obj 9 59 routeOSC /state0 /state1 /state2 /state3 /state4 /state5
;
#N canvas 88 126 828 548 unpack0 0;
#X obj 23 20 inlet;
#X obj 23 42 unpack f s f;
#X obj 92 76 select -1 0 1 2 3 4 5 6 7 8 9 10 11 12 13 14;
#X obj 416 515 outlet;
#X msg 64 332 send /quadMixCTL/l1wait 1;
#X msg 249 332 send /quadMixCTL/l1wait 0;
#X msg 445 332 send /quadMixCTL/l1rec 1;
#X msg 630 332 send /quadMixCTL/l1rec 0;
#X connect 0 0 1 0;
#X connect 1 2 2 0;
#X connect 2 0 5 0;
#X connect 2 0 7 0;
#X connect 2 1 5 0;
#X connect 2 1 7 0;
#X connect 2 2 4 0;
#X connect 2 2 7 0;
#X connect 2 3 5 0;
#X connect 2 3 6 0;
#X connect 2 4 4 0;
#X connect 2 4 6 0;
#X connect 2 5 5 0;
#X connect 2 5 7 0;
#X connect 2 6 6 0;
#X connect 2 6 5 0;
#X connect 2 7 5 0;
#X connect 2 7 7 0;
#X connect 2 8 5 0;
#X connect 2 8 7 0;
#X connect 2 9 5 0;
#X connect 2 9 7 0;
#X connect 2 10 5 0;
#X connect 2 10 7 0;
#X connect 2 11 5 0;
#X connect 2 11 7 0;
#X connect 2 12 5 0;
#X connect 2 12 7 0;
#X connect 2 13 5 0;
#X connect 2 13 7 0;
#X connect 2 14 5 0;
#X connect 2 14 7 0;
#X connect 2 15 5 0;
#X connect 2 15 7 0;
#X connect 4 0 3 0;
#X connect 5 0 3 0;
#X connect 6 0 3 0;
#X connect 7 0 3 0;
#X restore 9 192 pd unpack0;
#N canvas 88 126 828 548 unpack0 0;
#X obj 23 20 inlet;
#X obj 23 42 unpack f s f;
#X obj 92 76 select -1 0 1 2 3 4 5 6 7 8 9 10 11 12 13 14;
#X obj 416 515 outlet;
#X msg 64 332 send /quadMixCTL/l2wait 1;
#X msg 249 332 send /quadMixCTL/l2wait 0;
#X msg 445 332 send /quadMixCTL/l2rec 1;
#X msg 630 332 send /quadMixCTL/l2rec 0;
#X connect 0 0 1 0;
#X connect 1 2 2 0;
#X connect 2 0 5 0;
#X connect 2 0 7 0;
#X connect 2 1 5 0;
#X connect 2 1 7 0;
#X connect 2 2 4 0;
#X connect 2 2 7 0;
#X connect 2 3 5 0;
#X connect 2 3 6 0;
#X connect 2 4 4 0;
#X connect 2 4 6 0;
#X connect 2 5 5 0;
#X connect 2 5 7 0;
#X connect 2 6 5 0;
#X connect 2 6 6 0;
#X connect 2 7 5 0;
#X connect 2 7 7 0;
#X connect 2 8 5 0;
#X connect 2 8 7 0;
#X connect 2 9 5 0;
#X connect 2 9 7 0;
#X connect 2 10 5 0;
#X connect 2 10 7 0;
#X connect 2 11 5 0;
#X connect 2 11 7 0;
#X connect 2 12 5 0;
#X connect 2 12 7 0;
#X connect 2 13 5 0;
#X connect 2 13 7 0;
#X connect 2 14 5 0;
#X connect 2 14 7 0;
#X connect 2 15 5 0;
#X connect 2 15 7 0;
#X connect 4 0 3 0;
#X connect 5 0 3 0;
#X connect 6 0 3 0;
#X connect 7 0 3 0;
#X restore 64 172 pd unpack0;
#X msg 83 335 4 /sl/1/register_auto_update state 100 /quadMixSL/state1
;
#X msg 123 415 4 /sl/5/register_auto_update state 100 /quadMixSL/state5
;
#X msg 113 395 4 /sl/4/register_auto_update state 100 /quadMixSL/state4
;
#X msg 103 375 4 /sl/3/register_auto_update state 100 /quadMixSL/state3
;
#X msg 93 355 4 /sl/2/register_auto_update state 100 /quadMixSL/state2
;
#N canvas 88 126 828 548 unpack0 0;
#X obj 23 20 inlet;
#X obj 23 42 unpack f s f;
#X obj 92 76 select -1 0 1 2 3 4 5 6 7 8 9 10 11 12 13 14;
#X obj 416 515 outlet;
#X msg 64 332 send /quadMixCTL/l3wait 1;
#X msg 249 332 send /quadMixCTL/l3wait 0;
#X msg 445 332 send /quadMixCTL/l3rec 1;
#X msg 630 332 send /quadMixCTL/l3rec 0;
#X connect 0 0 1 0;
#X connect 1 2 2 0;
#X connect 2 0 5 0;
#X connect 2 0 7 0;
#X connect 2 1 5 0;
#X connect 2 1 7 0;
#X connect 2 2 4 0;
#X connect 2 2 7 0;
#X connect 2 3 5 0;
#X connect 2 3 6 0;
#X connect 2 4 4 0;
#X connect 2 4 6 0;
#X connect 2 5 5 0;
#X connect 2 5 7 0;
#X connect 2 6 5 0;
#X connect 2 6 6 0;
#X connect 2 7 5 0;
#X connect 2 7 7 0;
#X connect 2 8 5 0;
#X connect 2 8 7 0;
#X connect 2 9 5 0;
#X connect 2 9 7 0;
#X connect 2 10 5 0;
#X connect 2 10 7 0;
#X connect 2 11 5 0;
#X connect 2 11 7 0;
#X connect 2 12 5 0;
#X connect 2 12 7 0;
#X connect 2 13 5 0;
#X connect 2 13 7 0;
#X connect 2 14 5 0;
#X connect 2 14 7 0;
#X connect 2 15 5 0;
#X connect 2 15 7 0;
#X connect 4 0 3 0;
#X connect 5 0 3 0;
#X connect 6 0 3 0;
#X connect 7 0 3 0;
#X restore 120 152 pd unpack0;
#N canvas 88 126 828 548 unpack0 0;
#X obj 23 20 inlet;
#X obj 23 42 unpack f s f;
#X obj 92 76 select -1 0 1 2 3 4 5 6 7 8 9 10 11 12 13 14;
#X obj 416 515 outlet;
#X msg 64 332 send /quadMixCTL/l4wait 1;
#X msg 249 332 send /quadMixCTL/l4wait 0;
#X msg 445 332 send /quadMixCTL/l4rec 1;
#X msg 630 332 send /quadMixCTL/l4rec 0;
#X connect 0 0 1 0;
#X connect 1 2 2 0;
#X connect 2 0 5 0;
#X connect 2 0 7 0;
#X connect 2 1 5 0;
#X connect 2 1 7 0;
#X connect 2 2 4 0;
#X connect 2 2 7 0;
#X connect 2 3 5 0;
#X connect 2 3 6 0;
#X connect 2 4 4 0;
#X connect 2 4 6 0;
#X connect 2 5 5 0;
#X connect 2 5 7 0;
#X connect 2 6 5 0;
#X connect 2 6 6 0;
#X connect 2 7 5 0;
#X connect 2 7 7 0;
#X connect 2 8 5 0;
#X connect 2 8 7 0;
#X connect 2 9 5 0;
#X connect 2 9 7 0;
#X connect 2 10 5 0;
#X connect 2 10 7 0;
#X connect 2 11 5 0;
#X connect 2 11 7 0;
#X connect 2 12 5 0;
#X connect 2 12 7 0;
#X connect 2 13 5 0;
#X connect 2 13 7 0;
#X connect 2 14 5 0;
#X connect 2 14 7 0;
#X connect 2 15 5 0;
#X connect 2 15 7 0;
#X connect 4 0 3 0;
#X connect 5 0 3 0;
#X connect 6 0 3 0;
#X connect 7 0 3 0;
#X restore 175 132 pd unpack0;
#N canvas 88 126 828 548 unpack0 0;
#X obj 23 20 inlet;
#X obj 23 42 unpack f s f;
#X obj 92 76 select -1 0 1 2 3 4 5 6 7 8 9 10 11 12 13 14;
#X obj 416 515 outlet;
#X msg 64 332 send /quadMixCTL/l5wait 1;
#X msg 249 332 send /quadMixCTL/l5wait 0;
#X msg 445 332 send /quadMixCTL/l5rec 1;
#X msg 630 332 send /quadMixCTL/l5rec 0;
#X connect 0 0 1 0;
#X connect 1 2 2 0;
#X connect 2 0 5 0;
#X connect 2 0 7 0;
#X connect 2 1 5 0;
#X connect 2 1 7 0;
#X connect 2 2 4 0;
#X connect 2 2 7 0;
#X connect 2 3 5 0;
#X connect 2 3 6 0;
#X connect 2 4 4 0;
#X connect 2 4 6 0;
#X connect 2 5 5 0;
#X connect 2 5 7 0;
#X connect 2 6 5 0;
#X connect 2 6 6 0;
#X connect 2 7 5 0;
#X connect 2 7 7 0;
#X connect 2 8 5 0;
#X connect 2 8 7 0;
#X connect 2 9 5 0;
#X connect 2 9 7 0;
#X connect 2 10 5 0;
#X connect 2 10 7 0;
#X connect 2 11 5 0;
#X connect 2 11 7 0;
#X connect 2 12 5 0;
#X connect 2 12 7 0;
#X connect 2 13 5 0;
#X connect 2 13 7 0;
#X connect 2 14 5 0;
#X connect 2 14 7 0;
#X connect 2 15 5 0;
#X connect 2 15 7 0;
#X connect 4 0 3 0;
#X connect 5 0 3 0;
#X connect 6 0 3 0;
#X connect 7 0 3 0;
#X restore 231 112 pd unpack0;
#N canvas 88 126 828 548 unpack0 0;
#X obj 23 20 inlet;
#X obj 23 42 unpack f s f;
#X obj 92 76 select -1 0 1 2 3 4 5 6 7 8 9 10 11 12 13 14;
#X obj 416 515 outlet;
#X msg 64 332 send /quadMixCTL/l6wait 1;
#X msg 249 332 send /quadMixCTL/l6wait 0;
#X msg 445 332 send /quadMixCTL/l6rec 1;
#X msg 630 332 send /quadMixCTL/l6rec 0;
#X connect 0 0 1 0;
#X connect 1 2 2 0;
#X connect 2 0 5 0;
#X connect 2 0 7 0;
#X connect 2 1 5 0;
#X connect 2 1 7 0;
#X connect 2 2 4 0;
#X connect 2 2 7 0;
#X connect 2 3 5 0;
#X connect 2 3 6 0;
#X connect 2 4 4 0;
#X connect 2 4 6 0;
#X connect 2 5 5 0;
#X connect 2 5 7 0;
#X connect 2 6 5 0;
#X connect 2 6 6 0;
#X connect 2 7 5 0;
#X connect 2 7 7 0;
#X connect 2 8 5 0;
#X connect 2 8 7 0;
#X connect 2 9 5 0;
#X connect 2 9 7 0;
#X connect 2 10 5 0;
#X connect 2 10 7 0;
#X connect 2 11 5 0;
#X connect 2 11 7 0;
#X connect 2 12 5 0;
#X connect 2 12 7 0;
#X connect 2 13 5 0;
#X connect 2 13 7 0;
#X connect 2 14 5 0;
#X connect 2 14 7 0;
#X connect 2 15 5 0;
#X connect 2 15 7 0;
#X connect 4 0 3 0;
#X connect 5 0 3 0;
#X connect 6 0 3 0;
#X connect 7 0 3 0;
#X restore 286 92 pd unpack0;
#X obj 9 300 bng 15 250 50 0 empty empty empty 17 7 0 10 -262144 -1
-1;
#N canvas 95 85 579 565 highlightLoopSel 0;
#X obj 10 9 inlet;
#X obj 416 526 outlet;
#X msg 288 358 send /quadMixCTL/l4sel \$1;
#X msg 258 388 send /quadMixCTL/l3sel \$1;
#X msg 228 418 send /quadMixCTL/l2sel \$1;
#X msg 198 448 send /quadMixCTL/l1sel \$1;
#X msg 318 328 send /quadMixCTL/l5sel \$1;
#X msg 348 298 send /quadMixCTL/l6sel \$1;
#X obj 10 32 select 0 1 2 3 4 5;
#X msg 10 216 1;
#X msg 38 216 0;
#X msg 50 186 1;
#X msg 78 186 0;
#X msg 80 156 1;
#X msg 108 156 0;
#X msg 110 126 1;
#X msg 138 126 0;
#X msg 150 96 1;
#X msg 178 96 0;
#X msg 180 66 1;
#X msg 208 66 0;
#X connect 0 0 8 0;
#X connect 2 0 1 0;
#X connect 3 0 1 0;
#X connect 4 0 1 0;
#X connect 5 0 1 0;
#X connect 6 0 1 0;
#X connect 7 0 1 0;
#X connect 8 0 9 0;
#X connect 8 0 10 0;
#X connect 8 1 11 0;
#X connect 8 1 12 0;
#X connect 8 2 13 0;
#X connect 8 2 14 0;
#X connect 8 3 15 0;
#X connect 8 3 16 0;
#X connect 8 4 17 0;
#X connect 8 4 18 0;
#X connect 8 5 19 0;
#X connect 8 5 20 0;
#X connect 9 0 5 0;
#X connect 10 0 4 0;
#X connect 10 0 3 0;
#X connect 10 0 2 0;
#X connect 10 0 6 0;
#X connect 10 0 7 0;
#X connect 11 0 4 0;
#X connect 12 0 5 0;
#X connect 12 0 3 0;
#X connect 12 0 2 0;
#X connect 12 0 6 0;
#X connect 12 0 7 0;
#X connect 13 0 3 0;
#X connect 14 0 5 0;
#X connect 14 0 4 0;
#X connect 14 0 2 0;
#X connect 14 0 6 0;
#X connect 14 0 7 0;
#X connect 15 0 2 0;
#X connect 16 0 5 0;
#X connect 16 0 4 0;
#X connect 16 0 3 0;
#X connect 16 0 6 0;
#X connect 16 0 7 0;
#X connect 17 0 6 0;
#X connect 18 0 7 0;
#X connect 18 0 2 0;
#X connect 18 0 3 0;
#X connect 18 0 4 0;
#X connect 18 0 5 0;
#X connect 19 0 7 0;
#X connect 20 0 6 0;
#X connect 20 0 2 0;
#X connect 20 0 3 0;
#X connect 20 0 4 0;
#X connect 20 0 5 0;
#X restore 351 29 pd highlightLoopSel;
#X connect 0 0 20 0;
#X connect 3 0 2 0;
#X connect 4 0 5 0;
#X connect 5 0 7 0;
#X connect 6 0 3 0;
#X connect 7 0 8 0;
#X connect 7 1 9 0;
#X connect 7 2 15 0;
#X connect 7 3 16 0;
#X connect 7 4 17 0;
#X connect 7 5 18 0;
#X connect 8 0 1 0;
#X connect 9 0 1 0;
#X connect 10 0 3 0;
#X connect 11 0 3 0;
#X connect 12 0 3 0;
#X connect 13 0 3 0;
#X connect 14 0 3 0;
#X connect 15 0 1 0;
#X connect 16 0 1 0;
#X connect 17 0 1 0;
#X connect 18 0 1 0;
#X connect 19 0 11 0;
#X connect 19 0 12 0;
#X connect 19 0 13 0;
#X connect 19 0 14 0;
#X connect 19 0 10 0;
#X connect 19 0 6 0;
#X connect 20 0 1 0;
#X restore 260 62 pd quadMixButtonsSL;
#X connect 4 0 5 0;
#X connect 4 1 5 1;
#X connect 5 0 13 0;
#X connect 6 0 4 0;
#X connect 7 0 0 0;
#X connect 7 1 1 0;
#X connect 7 2 2 0;
#X connect 7 3 3 0;
#X connect 8 0 4 0;
#X connect 9 0 14 0;
#X connect 10 0 8 0;
#X connect 10 1 11 0;
#X connect 10 2 12 0;
#X connect 13 1 7 0;
#X connect 13 2 10 0;
#X connect 14 0 4 0;
